<?xml version="1.0" encoding="utf-8"?>
<!-- Generator: Adobe Illustrator 16.2.1, SVG Export Plug-In . SVG Version: 6.00 Build 0)  -->
<!DOCTYPE svg PUBLIC "-//W3C//DTD SVG 1.1//EN" "http://www.w3.org/Graphics/SVG/1.1/DTD/svg11.dtd">
<svg version="1.1" id="Layer_1" xmlns="http://www.w3.org/2000/svg" xmlns:xlink="http://www.w3.org/1999/xlink" x="0px" y="0px"
	 width="640px" height="216px" viewBox="0 0 640 216" enable-background="new 0 0 640 216" xml:space="preserve">
<g>
	<path fill="#002554" d="M326.25,58.143h8.357v52h-8.357V58.143z M376.179,68.714L376.179,68.714c-4.477-2.333-8.452-3.5-11.929-3.5
		l0,0l0,0c-2.571,0-4.607,0.572-6.107,1.715l0,0l0,0c-1.5,1.143-2.25,2.714-2.25,4.714l0,0l0,0c0,1.952,0.941,3.583,2.821,4.893l0,0
		l0,0c1.882,1.309,4.513,2.607,7.894,3.893l0,0l0,0c2.57,0.905,4.773,1.94,6.606,3.107l0,0l0,0c1.833,1.167,3.346,2.75,4.536,4.75
		l0,0l0,0c1.19,2,1.786,4.523,1.786,7.571l0,0l0,0c0,2.762-0.69,5.262-2.072,7.5l0,0l0,0c-1.38,2.238-3.38,4.024-6,5.357l0,0l0,0
		c-2.618,1.333-5.714,2-9.285,2l0,0l0,0c-3.144,0-6.238-0.487-9.286-1.464l0,0l0,0c-3.048-0.976-5.762-2.321-8.143-4.036l0,0
		l3.714-6.5l0,0c1.763,1.333,3.846,2.441,6.25,3.322l0,0l0,0c2.405,0.88,4.631,1.321,6.679,1.321l0,0l0,0
		c2.524,0,4.738-0.607,6.644-1.821l0,0l0,0c1.904-1.215,2.856-3.084,2.856-5.607l0,0l0,0c0-2-0.797-3.667-2.393-5l0,0l0,0
		c-1.596-1.333-3.822-2.547-6.679-3.643l0,0l0,0c-2.952-1.096-5.405-2.179-7.357-3.25l0,0l0,0c-1.952-1.071-3.63-2.571-5.035-4.5
		l0,0l0,0c-1.405-1.929-2.107-4.346-2.107-7.25l0,0l0,0c0-4.238,1.44-7.655,4.321-10.25l0,0l0,0
		c2.881-2.596,6.679-3.988,11.394-4.179l0,0l0,0c3.429,0,6.44,0.393,9.035,1.179l0,0l0,0c2.595,0.785,5.012,1.892,7.25,3.321l0,0
		L376.179,68.714z M390.464,58.143h8.357v44h25.643v8h-34V58.143z M466.964,110.143l-4.785-12.214H443.25l-5,12.214h-8.214
		l23-54.143h0.5l23,54.143H466.964z M446.179,90.786h13.215l-6.5-16.429L446.179,90.786z M523.036,58.143h8.285V112h-0.215
		l-37.5-36.357l0.215,34.5h-8.428V56.357h0.428l37.357,36.786L523.036,58.143z M545.679,110.143v-52h14.785l0,0
		c6.524,0,11.917,1.286,16.18,3.857l0,0l0,0c4.262,2.571,7.368,5.881,9.32,9.929l0,0l0,0c1.953,4.048,2.93,8.357,2.93,12.928l0,0
		l0,0c0,5.048-1.18,9.489-3.537,13.322l0,0l0,0c-2.356,3.833-5.512,6.786-9.463,8.857l0,0l0,0c-3.953,2.071-8.263,3.106-12.93,3.106
		l0,0H545.679z M554.036,102.143h7.428l0,0c3.715,0,6.988-0.691,9.822-2.072l0,0l0,0c2.833-1.381,5.048-3.417,6.643-6.107l0,0l0,0
		c1.595-2.69,2.393-5.916,2.393-9.678l0,0l0,0c0-4.096-0.869-7.512-2.607-10.25l0,0l0,0c-1.738-2.738-3.952-4.75-6.643-6.036l0,0
		l0,0c-2.69-1.286-5.464-1.929-8.321-1.929l0,0h-8.714V102.143z M51.107,58.143h31.572v8H59.464v14.643h20.215v7.928H59.464v21.429
		h-8.357V58.143z M90.25,84.214L90.25,84.214c0-4.762,1.19-9.179,3.571-13.25l0,0l0,0c2.381-4.071,5.607-7.321,9.679-9.75l0,0l0,0
		c4.071-2.429,8.512-3.643,13.321-3.643l0,0l0,0c4.762,0,9.178,1.214,13.25,3.643l0,0l0,0c4.072,2.429,7.322,5.691,9.75,9.786l0,0
		l0,0c2.428,4.095,3.643,8.5,3.643,13.214l0,0l0,0c0,4.81-1.202,9.239-3.607,13.286l0,0l0,0c-2.405,4.047-5.655,7.262-9.75,9.643
		l0,0l0,0c-4.095,2.38-8.524,3.571-13.286,3.571l0,0l0,0c-4.81,0-9.25-1.179-13.321-3.535l0,0l0,0
		c-4.071-2.357-7.298-5.56-9.679-9.607l0,0l0,0C91.44,93.523,90.25,89.071,90.25,84.214L90.25,84.214z M98.821,84.214L98.821,84.214
		c0,3.381,0.81,6.477,2.429,9.286l0,0l0,0c1.619,2.81,3.822,5.047,6.607,6.714l0,0l0,0c2.786,1.667,5.846,2.5,9.179,2.5l0,0l0,0
		c3.285,0,6.285-0.821,9-2.464l0,0l0,0c2.714-1.643,4.869-3.881,6.464-6.714l0,0l0,0c1.595-2.833,2.393-5.941,2.393-9.322l0,0l0,0
		c0-3.38-0.81-6.5-2.429-9.357l0,0l0,0c-1.619-2.857-3.809-5.119-6.571-6.786l0,0l0,0c-2.762-1.667-5.786-2.5-9.072-2.5l0,0l0,0
		c-3.333,0-6.369,0.833-9.107,2.5l0,0l0,0c-2.738,1.667-4.904,3.928-6.5,6.786l0,0l0,0C99.619,77.714,98.821,80.833,98.821,84.214
		L98.821,84.214z M192.607,110.143h-9.643L171.25,92.071h-0.857h-7.5v18.071h-8.357v-52h14.643l0,0
		c5.81,0,10.464,1.476,13.964,4.428l0,0l0,0c3.5,2.952,5.25,7.048,5.25,12.286l0,0l0,0c0,3.191-0.679,6.155-2.036,8.893l0,0l0,0
		c-1.357,2.738-3.488,4.845-6.393,6.321l0,0L192.607,110.143z M162.893,66.143v17.928h7.428l0,0c3.333,0,5.75-0.917,7.25-2.75l0,0
		l0,0c1.5-1.833,2.25-3.893,2.25-6.178l0,0l0,0c0-1.333-0.286-2.679-0.857-4.036l0,0l0,0c-0.571-1.357-1.547-2.524-2.928-3.5l0,0
		l0,0c-1.381-0.976-3.191-1.464-5.429-1.464l0,0H162.893z M243.75,105.357L243.75,105.357c-1.429,1.333-3.917,2.56-7.464,3.679l0,0
		l0,0c-3.548,1.118-6.798,1.678-9.75,1.678l0,0l0,0c-5.477,0-10.287-1.095-14.429-3.285l0,0l0,0
		c-4.143-2.19-7.333-5.202-9.571-9.036l0,0l0,0c-2.238-3.833-3.357-8.179-3.357-13.036l0,0l0,0c0-5.857,1.203-10.881,3.607-15.071
		l0,0l0,0c2.404-4.191,5.643-7.357,9.714-9.5l0,0l0,0c4.071-2.144,8.536-3.215,13.393-3.215l0,0l0,0c3,0,5.845,0.345,8.536,1.036
		l0,0l0,0c2.69,0.691,5.06,1.607,7.107,2.75l0,0l-2.715,7.714l0,0c-1.428-0.857-3.321-1.595-5.678-2.214l0,0l0,0
		c-2.357-0.619-4.417-0.928-6.179-0.928l0,0l0,0c-5.952,0-10.642,1.643-14.071,4.928l0,0l0,0c-3.429,3.286-5.143,7.881-5.143,13.786
		l0,0l0,0c0,3.524,0.798,6.631,2.393,9.321l0,0l0,0c1.595,2.691,3.833,4.774,6.714,6.25l0,0l0,0
		c2.881,1.477,6.179,2.215,9.893,2.215l0,0l0,0c1.667,0,3.262-0.155,4.786-0.465l0,0l0,0c1.523-0.309,2.809-0.75,3.857-1.321l0,0V92
		h-9.786v-8h18.143V105.357z M256.393,58.143h34.5v8H264.75V80h23.286v8H264.75v14.143h27.143v8h-35.5V58.143z"/>
	<path fill="#002554" d="M56.59,201.232h-5.548v14.09h-3.036v-14.09H42.5v-2.729h14.09V201.232z"/>
	<path fill="#002554" d="M72.009,206.521h2.402c1.442,0,2.796-0.984,2.796-2.295c0-1.551-1.354-2.315-2.818-2.315h-2.38V206.521z
		 M72.009,216h-3.037v-16.818h5.417c3.125,0,5.855,1.659,5.855,5.045c0,2.295-1.508,3.91-3.452,4.608L81.444,216h-3.407l-4.26-6.748
		h-1.768V216z"/>
	<path fill="#002554" d="M99.97,208.77h4.084l-2.053-4.632L99.97,208.77z M97.108,215.322h-3.233L102.001,198l8.083,17.322h-3.233
		l-1.639-3.823H98.79L97.108,215.322z"/>
	<path fill="#002554" d="M125.744,205.145v10.178h-3.037V198l11.271,10.857v-10.354h3.038V216L125.744,205.145z"/>
	<path fill="#002554" d="M150.623,213.533l1.55-2.143c1.747,1.245,2.709,1.42,3.867,1.42c1.768,0,2.555-0.722,2.555-2.076
		c0-3.342-7.668-2.291-7.668-7.797c0-3.627,2.752-4.676,5.069-4.676c1.921,0,3.123,0.416,5.264,2.012l-1.55,2.119
		c-1.726-1.246-2.622-1.377-3.714-1.377c-1.027,0-2.053,0.459-2.053,1.922c0,1.07,1.507,1.879,2.642,2.293
		c2.403,0.873,5.003,2.25,5.003,5.504c0,3.647-2.512,4.808-5.548,4.808C154.205,215.542,152.893,215.169,150.623,213.533z"/>
	<path fill="#002554" d="M184.349,208.289h-6.117v7.033h-3.036v-16.818h10.026v2.729h-6.99v4.326h6.117V208.289z"/>
	<path fill="#002554" d="M200.337,206.891c0,3.102,2.403,5.92,5.57,5.92c3.124,0,5.528-2.818,5.528-5.92
		c0-3.08-2.404-5.875-5.528-5.875C202.74,201.016,200.337,203.811,200.337,206.891z M197.258,206.891
		c0-4.718,3.887-8.606,8.649-8.606c4.763,0,8.607,3.932,8.607,8.606c0,4.783-3.909,8.651-8.607,8.651
		C201.167,215.542,197.258,211.674,197.258,206.891z"/>
	<path fill="#002554" d="M231.048,205.843h2.403c1.441,0,2.795-0.983,2.795-2.294c0-1.551-1.354-2.316-2.817-2.316h-2.381V205.843z
		 M231.048,215.322h-3.036v-16.818h5.417c3.124,0,5.854,1.659,5.854,5.045c0,2.294-1.508,3.91-3.451,4.608l4.652,7.165h-3.408
		l-4.259-6.748h-1.769V215.322z"/>
	<path fill="#002554" d="M265.56,205.035l-4.478,4.564l-4.499-4.564v10.287h-3.036V198l7.557,7.405l7.493-7.405v17.322h-3.037
		V205.035z"/>
	<path fill="#002554" d="M285.568,198.504v16.818h-3.037v-16.818H285.568z"/>
	<path fill="#002554" d="M302.539,205.145v10.178h-3.037V198l11.271,10.857v-10.354h3.038V216L302.539,205.145z"/>
	<path fill="#002554" d="M327.419,206.936c0-4.938,3.647-8.651,8.671-8.651c1.793,0,3.757,0.46,5.789,1.836l-1.441,2.25
		c-1.552-1.027-3.166-1.354-4.348-1.354c-3.298,0-5.592,2.621-5.592,5.92c0,3.209,2.359,5.875,5.592,5.875
		c1.005,0,2.315-0.306,3.321-0.873v-2.557h-3.08v-2.73h5.962v6.662c-1.768,1.267-3.909,2.229-6.203,2.229
		C330.979,215.542,327.419,211.674,327.419,206.936z"/>
	<path fill="#002554" d="M376.209,205.843h2.402c1.442,0,2.797-0.983,2.797-2.294c0-1.551-1.354-2.316-2.819-2.316h-2.38V205.843z
		 M376.209,215.322h-3.037v-16.818h5.417c3.124,0,5.854,1.659,5.854,5.045c0,2.294-1.508,3.91-3.45,4.608l4.651,7.165h-3.406
		l-4.26-6.748h-1.77V215.322z"/>
	<path fill="#002554" d="M400.586,206.891c0,3.102,2.404,5.92,5.57,5.92c3.124,0,5.526-2.818,5.526-5.92
		c0-3.08-2.402-5.875-5.526-5.875C402.99,201.016,400.586,203.811,400.586,206.891z M397.506,206.891
		c0-4.718,3.888-8.606,8.65-8.606s8.605,3.932,8.605,8.606c0,4.783-3.909,8.651-8.605,8.651
		C401.415,215.542,397.506,211.674,397.506,206.891z"/>
	<path fill="#002554" d="M439.969,201.232h-5.549v14.09h-3.035v-14.09h-5.505v-2.729h14.089V201.232z"/>
	<path fill="#002554" d="M465.263,215.322h-3.035v-7.033h-6.16v7.033h-3.037v-16.818h3.037v7.055h6.16v-7.055h3.035V215.322z"/>
	<path fill="#002554" d="M488.526,208.289h-6.291v4.304h7.384v2.729h-10.42v-16.818H489.4v2.729h-7.165v4.326h6.291V208.289z"/>
	<path fill="#002554" d="M506.262,205.843h2.402c1.442,0,2.796-0.983,2.796-2.294c0-1.551-1.354-2.316-2.818-2.316h-2.38V205.843z
		 M506.262,215.322h-3.037v-16.818h5.417c3.125,0,5.855,1.659,5.855,5.045c0,2.294-1.508,3.91-3.452,4.608l4.653,7.165h-3.408
		l-4.26-6.748h-1.769V215.322z"/>
	<path fill="#002554" d="M540.994,215.322h-3.038v-7.033h-6.159v7.033h-3.036v-16.818h3.036v7.055h6.159v-7.055h3.038V215.322z"/>
	<path fill="#002554" d="M559.712,208.77h4.083l-2.053-4.632L559.712,208.77z M556.85,215.322h-3.232L561.742,198l8.083,17.322
		h-3.233l-1.638-3.823h-6.422L556.85,215.322z"/>
	<path fill="#002554" d="M594.462,205.035l-4.477,4.564l-4.499-4.564v10.287h-3.037V198l7.557,7.405L597.5,198v17.322h-3.038
		V205.035z"/>
</g>
<path fill="#002554" d="M0,0v168h640V0H0z M630,158H10V10h620V158z"/>
</svg>
