<?xml version="1.0" standalone="no"?><!-- Generator: Gravit.io --><svg xmlns="http://www.w3.org/2000/svg" xmlns:xlink="http://www.w3.org/1999/xlink" style="isolation:isolate" viewBox="0 0 640 216" width="640" height="216"><defs><clipPath id="_clipPath_wySdyk5At5KRxqbCChNWvqt5BPnEsR67"><rect width="640" height="216"/></clipPath></defs><g clip-path="url(#_clipPath_wySdyk5At5KRxqbCChNWvqt5BPnEsR67)"><path d=" M 0 0 L 640 0 L 640 168 L 0 168 L 0 0 Z  M 10 10.003 L 630 10.003 L 630 158.003 L 10 158.003 L 10 10.003 Z " fill-rule="evenodd" fill="rgb(255,255,255)"/><path d=" M 326.25 58.143 L 334.607 58.143 L 334.607 110.143 L 326.25 110.143 L 326.25 58.143 Z  M 376.179 68.714 L 376.179 68.714 Q 369.464 65.214 364.25 65.214 L 364.25 65.214 L 364.25 65.214 Q 360.393 65.214 358.143 66.929 L 358.143 66.929 L 358.143 66.929 Q 355.893 68.643 355.893 71.643 L 355.893 71.643 L 355.893 71.643 Q 355.893 74.571 358.714 76.536 L 358.714 76.536 L 358.714 76.536 Q 361.536 78.5 366.607 80.429 L 366.607 80.429 L 366.607 80.429 Q 370.464 81.786 373.214 83.536 L 373.214 83.536 L 373.214 83.536 Q 375.964 85.286 377.75 88.286 L 377.75 88.286 L 377.75 88.286 Q 379.536 91.286 379.536 95.857 L 379.536 95.857 L 379.536 95.857 Q 379.536 100 377.464 103.357 L 377.464 103.357 L 377.464 103.357 Q 375.393 106.714 371.464 108.714 L 371.464 108.714 L 371.464 108.714 Q 367.536 110.714 362.179 110.714 L 362.179 110.714 L 362.179 110.714 Q 357.464 110.714 352.893 109.25 L 352.893 109.25 L 352.893 109.25 Q 348.321 107.786 344.75 105.214 L 344.75 105.214 L 348.464 98.714 L 348.464 98.714 Q 351.107 100.714 354.714 102.036 L 354.714 102.036 L 354.714 102.036 Q 358.321 103.357 361.393 103.357 L 361.393 103.357 L 361.393 103.357 Q 365.179 103.357 368.036 101.536 L 368.036 101.536 L 368.036 101.536 Q 370.893 99.714 370.893 95.929 L 370.893 95.929 L 370.893 95.929 Q 370.893 92.929 368.5 90.929 L 368.5 90.929 L 368.5 90.929 Q 366.107 88.929 361.821 87.286 L 361.821 87.286 L 361.821 87.286 Q 357.393 85.643 354.464 84.036 L 354.464 84.036 L 354.464 84.036 Q 351.536 82.429 349.429 79.536 L 349.429 79.536 L 349.429 79.536 Q 347.321 76.643 347.321 72.286 L 347.321 72.286 L 347.321 72.286 Q 347.321 65.929 351.643 62.036 L 351.643 62.036 L 351.643 62.036 Q 355.964 58.143 363.036 57.857 L 363.036 57.857 L 363.036 57.857 Q 368.179 57.857 372.071 59.036 L 372.071 59.036 L 372.071 59.036 Q 375.964 60.214 379.321 62.357 L 379.321 62.357 L 376.179 68.714 Z  M 390.464 58.143 L 398.821 58.143 L 398.821 102.143 L 424.464 102.143 L 424.464 110.143 L 390.464 110.143 L 390.464 58.143 Z  M 466.964 110.143 L 462.179 97.929 L 443.25 97.929 L 438.25 110.143 L 430.036 110.143 L 453.036 56 L 453.536 56 L 476.536 110.143 L 466.964 110.143 Z  M 446.179 90.786 L 459.393 90.786 L 452.893 74.357 L 446.179 90.786 Z  M 523.036 58.143 L 531.321 58.143 L 531.321 112 L 531.107 112 L 493.607 75.643 L 493.821 110.143 L 485.393 110.143 L 485.393 56.357 L 485.821 56.357 L 523.179 93.143 L 523.036 58.143 Z  M 545.679 110.143 L 545.679 58.143 L 560.464 58.143 L 560.464 58.143 Q 570.25 58.143 576.643 62 L 576.643 62 L 576.643 62 Q 583.036 65.857 585.964 71.929 L 585.964 71.929 L 585.964 71.929 Q 588.893 78 588.893 84.857 L 588.893 84.857 L 588.893 84.857 Q 588.893 92.429 585.357 98.179 L 585.357 98.179 L 585.357 98.179 Q 581.821 103.929 575.893 107.036 L 575.893 107.036 L 575.893 107.036 Q 569.964 110.143 562.964 110.143 L 562.964 110.143 L 545.679 110.143 Z  M 554.036 102.143 L 561.464 102.143 L 561.464 102.143 Q 567.036 102.143 571.286 100.071 L 571.286 100.071 L 571.286 100.071 Q 575.536 98 577.929 93.964 L 577.929 93.964 L 577.929 93.964 Q 580.321 89.929 580.321 84.286 L 580.321 84.286 L 580.321 84.286 Q 580.321 78.143 577.714 74.036 L 577.714 74.036 L 577.714 74.036 Q 575.107 69.929 571.071 68 L 571.071 68 L 571.071 68 Q 567.036 66.071 562.75 66.071 L 562.75 66.071 L 554.036 66.071 L 554.036 102.143 Z  M 51.107 58.143 L 82.679 58.143 L 82.679 66.143 L 59.464 66.143 L 59.464 80.786 L 79.679 80.786 L 79.679 88.714 L 59.464 88.714 L 59.464 110.143 L 51.107 110.143 L 51.107 58.143 Z  M 90.25 84.214 L 90.25 84.214 Q 90.25 77.071 93.821 70.964 L 93.821 70.964 L 93.821 70.964 Q 97.393 64.857 103.5 61.214 L 103.5 61.214 L 103.5 61.214 Q 109.607 57.571 116.821 57.571 L 116.821 57.571 L 116.821 57.571 Q 123.964 57.571 130.071 61.214 L 130.071 61.214 L 130.071 61.214 Q 136.179 64.857 139.821 71 L 139.821 71 L 139.821 71 Q 143.464 77.143 143.464 84.214 L 143.464 84.214 L 143.464 84.214 Q 143.464 91.429 139.857 97.5 L 139.857 97.5 L 139.857 97.5 Q 136.25 103.571 130.107 107.143 L 130.107 107.143 L 130.107 107.143 Q 123.964 110.714 116.821 110.714 L 116.821 110.714 L 116.821 110.714 Q 109.607 110.714 103.5 107.179 L 103.5 107.179 L 103.5 107.179 Q 97.393 103.643 93.821 97.571 L 93.821 97.571 L 93.821 97.571 Q 90.25 91.5 90.25 84.214 L 90.25 84.214 Z  M 98.821 84.214 L 98.821 84.214 Q 98.821 89.286 101.25 93.5 L 101.25 93.5 L 101.25 93.5 Q 103.679 97.714 107.857 100.214 L 107.857 100.214 L 107.857 100.214 Q 112.036 102.714 117.036 102.714 L 117.036 102.714 L 117.036 102.714 Q 121.964 102.714 126.036 100.25 L 126.036 100.25 L 126.036 100.25 Q 130.107 97.786 132.5 93.536 L 132.5 93.536 L 132.5 93.536 Q 134.893 89.286 134.893 84.214 L 134.893 84.214 L 134.893 84.214 Q 134.893 79.143 132.464 74.857 L 132.464 74.857 L 132.464 74.857 Q 130.036 70.571 125.893 68.071 L 125.893 68.071 L 125.893 68.071 Q 121.75 65.571 116.821 65.571 L 116.821 65.571 L 116.821 65.571 Q 111.821 65.571 107.714 68.071 L 107.714 68.071 L 107.714 68.071 Q 103.607 70.571 101.214 74.857 L 101.214 74.857 L 101.214 74.857 Q 98.821 79.143 98.821 84.214 L 98.821 84.214 Z  M 192.607 110.143 L 182.964 110.143 L 171.25 92.071 L 170.393 92.071 L 162.893 92.071 L 162.893 110.143 L 154.536 110.143 L 154.536 58.143 L 169.179 58.143 L 169.179 58.143 Q 177.893 58.143 183.143 62.571 L 183.143 62.571 L 183.143 62.571 Q 188.393 67 188.393 74.857 L 188.393 74.857 L 188.393 74.857 Q 188.393 79.643 186.357 83.75 L 186.357 83.75 L 186.357 83.75 Q 184.321 87.857 179.964 90.071 L 179.964 90.071 L 192.607 110.143 Z  M 162.893 66.143 L 162.893 84.071 L 170.321 84.071 L 170.321 84.071 Q 175.321 84.071 177.571 81.321 L 177.571 81.321 L 177.571 81.321 Q 179.821 78.571 179.821 75.143 L 179.821 75.143 L 179.821 75.143 Q 179.821 73.143 178.964 71.107 L 178.964 71.107 L 178.964 71.107 Q 178.107 69.071 176.036 67.607 L 176.036 67.607 L 176.036 67.607 Q 173.964 66.143 170.607 66.143 L 170.607 66.143 L 162.893 66.143 Z  M 243.75 105.357 L 243.75 105.357 Q 241.607 107.357 236.286 109.036 L 236.286 109.036 L 236.286 109.036 Q 230.964 110.714 226.536 110.714 L 226.536 110.714 L 226.536 110.714 Q 218.321 110.714 212.107 107.429 L 212.107 107.429 L 212.107 107.429 Q 205.893 104.143 202.536 98.393 L 202.536 98.393 L 202.536 98.393 Q 199.179 92.643 199.179 85.357 L 199.179 85.357 L 199.179 85.357 Q 199.179 76.571 202.786 70.286 L 202.786 70.286 L 202.786 70.286 Q 206.393 64 212.5 60.786 L 212.5 60.786 L 212.5 60.786 Q 218.607 57.571 225.893 57.571 L 225.893 57.571 L 225.893 57.571 Q 230.393 57.571 234.429 58.607 L 234.429 58.607 L 234.429 58.607 Q 238.464 59.643 241.536 61.357 L 241.536 61.357 L 238.821 69.071 L 238.821 69.071 Q 236.679 67.786 233.143 66.857 L 233.143 66.857 L 233.143 66.857 Q 229.607 65.929 226.964 65.929 L 226.964 65.929 L 226.964 65.929 Q 218.036 65.929 212.893 70.857 L 212.893 70.857 L 212.893 70.857 Q 207.75 75.786 207.75 84.643 L 207.75 84.643 L 207.75 84.643 Q 207.75 89.929 210.143 93.964 L 210.143 93.964 L 210.143 93.964 Q 212.536 98 216.857 100.214 L 216.857 100.214 L 216.857 100.214 Q 221.179 102.429 226.75 102.429 L 226.75 102.429 L 226.75 102.429 Q 229.25 102.429 231.536 101.964 L 231.536 101.964 L 231.536 101.964 Q 233.821 101.5 235.393 100.643 L 235.393 100.643 L 235.393 92 L 225.607 92 L 225.607 84 L 243.75 84 L 243.75 105.357 Z  M 256.393 58.143 L 290.893 58.143 L 290.893 66.143 L 264.75 66.143 L 264.75 80 L 288.036 80 L 288.036 88 L 264.75 88 L 264.75 102.143 L 291.893 102.143 L 291.893 110.143 L 256.393 110.143 L 256.393 58.143 Z " fill-rule="evenodd" fill="rgb(255,255,255)"/><path d=" M 56.59 201.233 L 51.042 201.233 L 51.042 215.322 L 48.006 215.322 L 48.006 201.233 L 42.5 201.233 L 42.5 198.504 L 56.59 198.504 L 56.59 201.233 Z " fill="rgb(255,255,255)"/><path d=" M 72.009 206.521 L 74.411 206.521 C 75.853 206.521 77.207 205.537 77.207 204.227 C 77.207 202.676 75.853 201.911 74.389 201.911 L 72.009 201.911 L 72.009 206.521 Z  M 72.009 216 L 68.972 216 L 68.972 199.182 L 74.389 199.182 C 77.514 199.182 80.244 200.841 80.244 204.227 C 80.244 206.521 78.736 208.137 76.792 208.835 L 81.444 216 L 78.037 216 L 73.777 209.252 L 72.009 209.252 L 72.009 216 Z " fill="rgb(255,255,255)"/><path d=" M 99.97 208.769 L 104.054 208.769 L 102.001 204.138 L 99.97 208.769 Z  M 97.108 215.322 L 93.875 215.322 L 102.001 198 L 110.084 215.322 L 106.851 215.322 L 105.212 211.499 L 98.79 211.499 L 97.108 215.322 Z " fill="rgb(255,255,255)"/><path d=" M 125.744 205.144 L 125.744 215.322 L 122.707 215.322 L 122.707 198 L 133.978 208.857 L 133.978 198.504 L 137.016 198.504 L 137.016 216 L 125.744 205.144 Z " fill="rgb(255,255,255)"/><path d=" M 150.623 213.533 L 152.173 211.391 C 153.92 212.636 154.882 212.811 156.04 212.811 C 157.808 212.811 158.595 212.089 158.595 210.735 C 158.595 207.393 150.927 208.443 150.927 202.938 C 150.927 199.311 153.679 198.262 155.996 198.262 C 157.917 198.262 159.119 198.678 161.26 200.273 L 159.71 202.392 C 157.984 201.146 157.088 201.015 155.996 201.015 C 154.969 201.015 153.943 201.474 153.943 202.938 C 153.943 204.008 155.45 204.816 156.585 205.23 C 158.988 206.104 161.588 207.48 161.588 210.735 C 161.588 214.382 159.076 215.542 156.04 215.542 C 154.205 215.542 152.893 215.169 150.623 213.533 Z " fill="rgb(255,255,255)"/><path d=" M 184.349 208.289 L 178.232 208.289 L 178.232 215.322 L 175.196 215.322 L 175.196 198.504 L 185.222 198.504 L 185.222 201.233 L 178.232 201.233 L 178.232 205.558 L 184.349 205.558 L 184.349 208.289 Z " fill="rgb(255,255,255)"/><path d=" M 200.337 206.89 C 200.337 209.992 202.74 212.811 205.907 212.811 C 209.031 212.811 211.435 209.992 211.435 206.89 C 211.435 203.81 209.031 201.015 205.907 201.015 C 202.74 201.015 200.337 203.81 200.337 206.89 Z  M 197.258 206.89 C 197.258 202.173 201.145 198.284 205.907 198.284 C 210.67 198.284 214.514 202.216 214.514 206.89 C 214.514 211.674 210.605 215.542 205.907 215.542 C 201.167 215.542 197.258 211.674 197.258 206.89 Z " fill="rgb(255,255,255)"/><path d=" M 231.048 205.843 L 233.451 205.843 C 234.892 205.843 236.246 204.859 236.246 203.549 C 236.246 201.998 234.892 201.233 233.429 201.233 L 231.048 201.233 L 231.048 205.843 Z  M 231.048 215.322 L 228.012 215.322 L 228.012 198.504 L 233.429 198.504 C 236.553 198.504 239.283 200.163 239.283 203.549 C 239.283 205.843 237.775 207.459 235.832 208.157 L 240.484 215.322 L 237.076 215.322 L 232.817 208.574 L 231.048 208.574 L 231.048 215.322 Z " fill="rgb(255,255,255)"/><path d=" M 265.56 205.035 L 261.082 209.6 L 256.583 205.035 L 256.583 215.322 L 253.547 215.322 L 253.547 198 L 261.104 205.405 L 268.597 198 L 268.597 215.322 L 265.56 215.322 L 265.56 205.035 Z " fill="rgb(255,255,255)"/><path d=" M 285.568 198.504 L 285.568 215.322 L 282.531 215.322 L 282.531 198.504 L 285.568 198.504 Z " fill="rgb(255,255,255)"/><path d=" M 302.539 205.144 L 302.539 215.322 L 299.502 215.322 L 299.502 198 L 310.773 208.857 L 310.773 198.504 L 313.811 198.504 L 313.811 216 L 302.539 205.144 Z " fill="rgb(255,255,255)"/><path d=" M 327.419 206.935 C 327.419 201.998 331.066 198.284 336.09 198.284 C 337.883 198.284 339.847 198.744 341.879 200.12 L 340.437 202.37 C 338.886 201.343 337.271 201.015 336.09 201.015 C 332.792 201.015 330.498 203.637 330.498 206.935 C 330.498 210.145 332.857 212.811 336.09 212.811 C 337.095 212.811 338.405 212.505 339.411 211.937 L 339.411 209.381 L 336.331 209.381 L 336.331 206.651 L 342.293 206.651 L 342.293 213.313 C 340.525 214.579 338.384 215.542 336.09 215.542 C 330.979 215.542 327.419 211.674 327.419 206.935 Z " fill="rgb(255,255,255)"/><path d=" M 376.209 205.843 L 378.611 205.843 C 380.054 205.843 381.408 204.859 381.408 203.549 C 381.408 201.998 380.054 201.233 378.589 201.233 L 376.209 201.233 L 376.209 205.843 Z  M 376.209 215.322 L 373.172 215.322 L 373.172 198.504 L 378.589 198.504 C 381.713 198.504 384.444 200.163 384.444 203.549 C 384.444 205.843 382.936 207.459 380.993 208.157 L 385.645 215.322 L 382.238 215.322 L 377.979 208.574 L 376.209 208.574 L 376.209 215.322 Z " fill="rgb(255,255,255)"/><path d=" M 400.586 206.89 C 400.586 209.992 402.99 212.811 406.156 212.811 C 409.28 212.811 411.683 209.992 411.683 206.89 C 411.683 203.81 409.28 201.015 406.156 201.015 C 402.99 201.015 400.586 203.81 400.586 206.89 Z  M 397.506 206.89 C 397.506 202.173 401.394 198.284 406.156 198.284 C 410.919 198.284 414.762 202.216 414.762 206.89 C 414.762 211.674 410.853 215.542 406.156 215.542 C 401.415 215.542 397.506 211.674 397.506 206.89 Z " fill="rgb(255,255,255)"/><path d=" M 439.969 201.233 L 434.42 201.233 L 434.42 215.322 L 431.385 215.322 L 431.385 201.233 L 425.88 201.233 L 425.88 198.504 L 439.969 198.504 L 439.969 201.233 Z " fill="rgb(255,255,255)"/><path d=" M 465.263 215.322 L 462.227 215.322 L 462.227 208.289 L 456.067 208.289 L 456.067 215.322 L 453.03 215.322 L 453.03 198.504 L 456.067 198.504 L 456.067 205.558 L 462.227 205.558 L 462.227 198.504 L 465.263 198.504 L 465.263 215.322 Z " fill="rgb(255,255,255)"/><path d=" M 488.526 208.289 L 482.235 208.289 L 482.235 212.593 L 489.619 212.593 L 489.619 215.322 L 479.199 215.322 L 479.199 198.504 L 489.4 198.504 L 489.4 201.233 L 482.235 201.233 L 482.235 205.558 L 488.526 205.558 L 488.526 208.289 Z " fill="rgb(255,255,255)"/><path d=" M 506.262 205.843 L 508.664 205.843 C 510.106 205.843 511.46 204.859 511.46 203.549 C 511.46 201.998 510.106 201.233 508.642 201.233 L 506.262 201.233 L 506.262 205.843 Z  M 506.262 215.322 L 503.225 215.322 L 503.225 198.504 L 508.642 198.504 C 511.767 198.504 514.497 200.163 514.497 203.549 C 514.497 205.843 512.989 207.459 511.045 208.157 L 515.698 215.322 L 512.29 215.322 L 508.03 208.574 L 506.262 208.574 L 506.262 215.322 Z " fill="rgb(255,255,255)"/><path d=" M 540.994 215.322 L 537.956 215.322 L 537.956 208.289 L 531.797 208.289 L 531.797 215.322 L 528.761 215.322 L 528.761 198.504 L 531.797 198.504 L 531.797 205.558 L 537.956 205.558 L 537.956 198.504 L 540.994 198.504 L 540.994 215.322 Z " fill="rgb(255,255,255)"/><path d=" M 559.712 208.769 L 563.795 208.769 L 561.742 204.138 L 559.712 208.769 Z  M 556.85 215.322 L 553.617 215.322 L 561.742 198 L 569.825 215.322 L 566.592 215.322 L 564.954 211.499 L 558.532 211.499 L 556.85 215.322 Z " fill="rgb(255,255,255)"/><path d=" M 594.462 205.035 L 589.985 209.6 L 585.486 205.035 L 585.486 215.322 L 582.449 215.322 L 582.449 198 L 590.006 205.405 L 597.5 198 L 597.5 215.322 L 594.462 215.322 L 594.462 205.035 Z " fill="rgb(255,255,255)"/></g></svg>