<?xml version="1.0" standalone="no"?><!-- Generator: Gravit.io --><svg xmlns="http://www.w3.org/2000/svg" xmlns:xlink="http://www.w3.org/1999/xlink" style="isolation:isolate" viewBox="0 0 160 140" width="160" height="140"><defs><clipPath id="_clipPath_JV4ffteAHEgCV2NQ9nKmtDWfl2BKIC6v"><rect width="160" height="140"/></clipPath></defs><g clip-path="url(#_clipPath_JV4ffteAHEgCV2NQ9nKmtDWfl2BKIC6v)"><path d=" M 72.29 116.624 C 74.735 114.193 78.7 114.193 81.147 116.624 C 83.593 119.053 83.593 122.993 81.147 125.425 C 78.7 127.856 74.735 127.856 72.29 125.425 C 69.844 122.993 69.844 119.053 72.29 116.624 Z " fill="rgb(244,131,58)"/><path d=" M 59.455 103.872 C 61.896 101.436 65.867 101.436 68.313 103.867 C 70.752 106.298 70.76 110.238 68.313 112.667 C 65.867 115.101 61.896 115.101 59.455 112.667 C 57.008 110.238 57.008 106.298 59.455 103.872 Z " fill="rgb(189,129,87)"/><path d=" M 106.853 66.147 C 107.499 63.435 109.236 61.954 111.571 61.954 C 114.252 61.954 116.037 63.385 116.536 66.147 L 106.853 66.147 Z  M 83.789 77.646 C 81.205 77.646 79.916 76.416 79.717 73.896 L 71.4 73.896 L 71.4 67.85 C 72.944 70.234 76.169 71.682 81.157 72.761 C 84.929 73.552 87.114 73.744 87.114 75.422 C 87.114 76.658 85.921 77.646 83.789 77.646 Z  M 126.714 71.379 C 126.714 60.772 120.857 54.65 111.469 54.65 C 102.633 54.65 96.425 60.622 96.425 69.258 C 96.425 69.445 96.433 69.63 96.438 69.814 C 95.652 68.581 94.461 67.575 92.775 66.64 C 91.137 65.755 88.006 65.356 83.637 64.469 C 81.605 64.075 80.608 63.534 80.608 62.695 C 80.608 61.805 81.701 61.065 83.637 61.065 C 85.969 61.065 87.114 61.954 87.213 63.776 L 96.796 63.776 C 96.697 57.81 92.078 54.65 83.39 54.65 C 77.314 54.65 73.219 56.437 71.4 59.594 L 71.4 55.439 L 60.822 55.439 L 60.822 71.48 C 60.822 73.744 59.185 75.374 56.852 75.374 C 54.566 75.374 53.177 73.992 53.177 71.48 L 53.177 55.439 L 42.602 55.439 L 42.602 58.719 C 43.578 60.36 44.095 62.485 44.095 65.063 L 44.095 77.697 C 45.415 78.91 46.302 80.581 46.503 82.453 C 48.009 83.54 49.899 84.109 52.086 84.109 C 55.906 84.109 58.938 82.479 61.369 79.077 L 61.369 83.419 L 71.4 83.419 L 71.4 79.572 C 73.499 82.671 77.703 84.207 84.036 84.207 C 92.373 84.207 97.084 81.086 97.592 75.683 C 99.752 81.025 104.783 84.207 111.718 84.207 C 119.415 84.207 124.926 80.459 126.267 74.783 L 115.89 74.783 C 115.292 76.115 113.903 76.903 112.016 76.903 C 109.134 76.903 107.1 75.127 106.606 72.021 L 126.714 72.021 L 126.714 71.379 Z " fill="rgb(124,125,128)"/><path d=" M 42.601 58.72 C 41.052 56.125 38.343 54.75 34.658 54.75 C 30.736 54.75 27.956 56.332 25.871 59.635 C 24.184 56.181 21.45 54.75 18.075 54.75 C 14.202 54.75 11.62 56.231 9.636 59.635 L 9.636 55.44 L 0.002 55.44 L 0.002 83.417 L 10.43 83.417 L 10.43 67.925 C 10.43 64.867 11.272 63.386 13.706 63.386 C 15.791 63.386 16.834 64.816 16.834 67.579 L 16.834 83.417 L 27.211 83.417 L 27.211 67.43 C 27.211 64.867 28.452 63.386 30.489 63.386 C 32.822 63.386 33.618 64.766 33.618 67.43 L 33.618 77.819 C 34.989 76.498 36.858 75.684 38.921 75.684 C 40.421 75.684 41.82 76.118 43 76.861 C 43.39 77.106 43.756 77.387 44.094 77.698 L 44.094 65.064 C 44.094 62.486 43.578 60.361 42.601 58.72 Z " fill="rgb(42,42,42)"/><path d=" M 44.08 83.43 C 44.08 86.303 41.733 88.636 38.841 88.636 C 35.946 88.636 33.599 86.303 33.599 83.43 C 33.599 80.551 35.946 78.221 38.841 78.221 C 41.733 78.221 44.08 80.551 44.08 83.43 Z " fill="rgb(124,125,128)"/><path d=" M 11.232 96.213 C 11.913 96.213 12.356 95.642 12.356 94.694 C 12.356 93.822 11.901 93.264 11.267 93.264 L 10.713 93.264 L 10.713 96.213 L 11.232 96.213 Z  M 9.083 91.99 L 11.438 91.99 C 12.094 91.99 12.593 92.076 12.989 92.374 C 13.638 92.859 14.022 93.703 14.022 94.722 C 14.022 95.718 13.714 96.43 13.01 97.034 C 12.605 97.378 12.079 97.522 11.374 97.522 L 9.083 97.522 L 9.083 91.99 Z " fill="rgb(150,152,155)"/><path d=" M 18.341 91.99 L 22.881 91.99 L 22.881 93.329 L 19.959 93.329 L 19.959 94.054 L 22.492 94.054 L 22.492 95.28 L 19.959 95.28 L 19.959 96.129 L 22.932 96.129 L 22.932 97.522 L 18.341 97.522 L 18.341 91.99 Z " fill="rgb(150,152,155)"/><path d=" M 26.583 91.99 L 28.312 91.99 L 29.088 94.855 C 29.208 95.308 29.281 95.712 29.281 96.086 L 29.337 96.086 C 29.358 95.571 29.416 95.166 29.5 94.863 L 30.299 91.99 L 31.957 91.99 L 30.263 97.522 L 28.325 97.522 L 26.583 91.99 Z " fill="rgb(150,152,155)"/><path d=" M 35.843 91.99 L 40.382 91.99 L 40.382 93.329 L 37.458 93.329 L 37.458 94.054 L 39.991 94.054 L 39.991 95.28 L 37.458 95.28 L 37.458 96.129 L 40.433 96.129 L 40.433 97.522 L 35.843 97.522 L 35.843 91.99 Z " fill="rgb(150,152,155)"/><path d=" M 44.753 91.99 L 46.403 91.99 L 46.403 96.114 L 48.624 96.114 L 48.624 97.522 L 44.753 97.522 L 44.753 91.99 Z " fill="rgb(150,152,155)"/><path d=" M 55.129 96.32 C 55.704 96.32 56.134 95.738 56.134 94.74 C 56.134 93.737 55.719 93.193 55.066 93.193 C 54.488 93.193 54.061 93.775 54.061 94.77 C 54.061 95.776 54.468 96.32 55.129 96.32 Z  M 53.138 92.642 C 53.613 92.127 54.267 91.856 55.058 91.856 C 55.826 91.856 56.487 92.119 56.993 92.622 C 57.535 93.163 57.82 93.886 57.82 94.778 C 57.82 95.617 57.563 96.312 57.057 96.855 C 56.574 97.378 55.92 97.657 55.129 97.657 C 54.358 97.657 53.705 97.396 53.209 96.893 C 52.652 96.34 52.375 95.627 52.375 94.74 C 52.375 93.886 52.616 93.208 53.138 92.642 Z " fill="rgb(150,152,155)"/><path d=" M 63.747 94.494 L 64.432 94.494 C 64.864 94.494 65.093 94.277 65.093 93.872 C 65.093 93.455 64.859 93.228 64.409 93.228 L 63.747 93.228 L 63.747 94.494 Z  M 62.117 91.957 L 64.467 91.957 C 65.947 91.957 66.736 92.677 66.736 93.943 C 66.736 95.017 65.96 95.781 64.859 95.781 L 63.77 95.781 L 63.77 97.486 L 62.117 97.486 L 62.117 91.957 Z " fill="rgb(150,152,155)"/><path d=" M 71.035 91.99 L 73.314 91.99 L 73.869 94.325 C 73.975 94.757 74.039 95.159 74.039 95.553 L 74.087 95.553 C 74.11 95.081 74.159 94.679 74.237 94.332 L 74.787 91.99 L 77.071 91.99 L 77.071 97.522 L 75.512 97.522 L 75.512 94.706 C 75.512 94.231 75.527 93.85 75.59 93.569 L 75.547 93.554 C 75.519 93.743 75.484 93.963 75.428 94.219 L 74.716 97.522 L 73.378 97.522 L 72.666 94.219 C 72.607 93.943 72.566 93.723 72.543 93.554 L 72.503 93.569 C 72.566 93.85 72.579 94.231 72.579 94.706 L 72.579 97.522 L 71.035 97.522 L 71.035 91.99 Z " fill="rgb(150,152,155)"/><path d=" M 81.604 91.99 L 86.144 91.99 L 86.144 93.329 L 83.219 93.329 L 83.219 94.054 L 85.752 94.054 L 85.752 95.28 L 83.219 95.28 L 83.219 96.129 L 86.195 96.129 L 86.195 97.522 L 81.604 97.522 L 81.604 91.99 Z " fill="rgb(150,152,155)"/><path d=" M 90.514 91.99 L 92.18 91.99 L 93.498 94.454 C 93.653 94.749 93.767 95.025 93.823 95.28 L 93.867 95.26 C 93.747 94.919 93.732 94.537 93.732 94.085 L 93.732 91.99 L 95.299 91.99 L 95.299 97.522 L 93.648 97.522 L 92.302 94.949 C 92.157 94.679 92.053 94.395 91.982 94.112 L 91.939 94.135 C 92.046 94.459 92.081 94.848 92.081 95.315 L 92.081 97.522 L 90.514 97.522 L 90.514 91.99 Z " fill="rgb(150,152,155)"/><path d=" M 99.539 91.99 L 104.613 91.99 L 104.613 93.362 L 102.896 93.362 L 102.896 97.522 L 101.253 97.522 L 101.253 93.362 L 99.539 93.362 L 99.539 91.99 Z " fill="rgb(150,152,155)"/><path d=" M 110.378 95.617 L 110.378 95.64 C 110.378 96.163 110.627 96.419 111.146 96.419 C 111.637 96.419 111.909 96.247 111.909 95.959 C 111.909 95.605 111.438 95.526 110.548 95.294 C 109.317 94.968 108.734 94.445 108.734 93.57 C 108.734 92.514 109.581 91.849 111.077 91.849 C 112.527 91.849 113.346 92.522 113.374 93.654 L 111.759 93.654 C 111.754 93.222 111.532 93.037 111.034 93.037 C 110.614 93.037 110.388 93.209 110.388 93.454 C 110.388 93.752 110.792 93.851 111.596 94.056 C 112.158 94.197 112.57 94.311 112.814 94.468 C 113.338 94.799 113.567 95.165 113.567 95.754 C 113.567 96.934 112.712 97.649 111.184 97.649 C 109.554 97.649 108.727 96.997 108.676 95.617 L 110.378 95.617 Z " fill="rgb(150,152,155)"/><path d=" M 97.965 116.624 C 100.412 114.193 104.377 114.193 106.821 116.624 C 109.266 119.053 109.266 122.993 106.821 125.425 C 104.372 127.856 100.409 127.856 97.965 125.425 C 95.513 122.993 95.513 119.053 97.965 116.624 Z " fill="rgb(244,131,58)"/><path d=" M 85.129 129.376 C 87.573 126.949 91.54 126.949 93.985 129.376 C 96.434 131.81 96.434 135.747 93.985 138.181 C 91.54 140.61 87.573 140.61 85.129 138.181 C 82.677 135.752 82.677 131.81 85.129 129.376 Z " fill="rgb(244,131,58)"/><path d=" M 136.472 78.359 C 138.919 75.922 142.886 75.922 145.331 78.351 C 147.777 80.79 147.777 84.73 145.331 87.161 C 142.886 89.592 138.919 89.592 136.472 87.161 C 134.03 84.73 134.03 80.79 136.472 78.359 Z " fill="rgb(235,48,145)"/><path d=" M 72.29 14.576 C 74.737 12.144 78.705 12.144 81.147 14.576 C 83.593 17.009 83.593 20.947 81.147 23.378 C 78.705 25.81 74.735 25.81 72.29 23.378 C 69.844 20.947 69.844 17.009 72.29 14.576 Z " fill="rgb(62,174,226)"/><path d=" M 123.637 91.109 C 126.083 88.678 130.048 88.678 132.498 91.109 C 134.939 93.54 134.939 97.48 132.493 99.917 C 130.048 102.343 126.083 102.343 123.637 99.917 C 121.195 97.48 121.195 93.54 123.637 91.109 Z " fill="rgb(237,68,111)"/><path d=" M 59.455 27.334 C 61.896 24.903 65.867 24.903 68.313 27.334 C 70.752 29.758 70.76 33.705 68.313 36.137 C 65.867 38.568 61.896 38.56 59.455 36.137 C 57.008 33.705 57.008 29.765 59.455 27.334 Z " fill="rgb(62,174,226)"/><path d=" M 110.798 103.872 C 113.245 101.441 117.212 101.441 119.654 103.872 C 122.103 106.298 122.103 110.243 119.654 112.667 C 117.212 115.101 113.245 115.101 110.798 112.667 C 108.356 110.243 108.356 106.298 110.798 103.872 Z " fill="rgb(241,107,79)"/><path d=" M 97.965 14.576 C 100.412 12.144 104.377 12.144 106.821 14.576 C 109.266 17.009 109.266 20.947 106.821 23.378 C 104.377 25.81 100.412 25.81 97.965 23.378 C 95.521 20.947 95.521 17.009 97.965 14.576 Z " fill="rgb(62,174,226)"/><path d=" M 85.129 1.826 C 87.573 -0.606 91.54 -0.606 93.985 1.826 C 96.434 4.257 96.434 8.19 93.985 10.626 C 91.54 13.052 87.573 13.052 85.129 10.621 C 82.679 8.19 82.679 4.257 85.129 1.826 Z " fill="rgb(62,174,226)"/><path d=" M 136.472 52.843 C 138.919 50.412 142.886 50.412 145.331 52.843 C 147.777 55.274 147.777 59.215 145.333 61.643 C 142.886 64.074 138.919 64.074 136.472 61.643 C 134.03 59.215 134.03 55.274 136.472 52.843 Z " fill="rgb(235,48,145)"/><path d=" M 123.637 40.091 C 126.083 37.654 130.048 37.654 132.498 40.091 C 134.939 42.517 134.939 46.462 132.498 48.888 C 130.048 51.319 126.083 51.319 123.637 48.888 C 121.195 46.462 121.195 42.517 123.637 40.091 Z " fill="rgb(152,83,158)"/><path d=" M 110.798 27.334 C 113.245 24.903 117.215 24.903 119.654 27.334 C 122.103 29.758 122.103 33.705 119.654 36.137 C 117.212 38.56 113.245 38.56 110.798 36.137 C 108.356 33.705 108.356 29.758 110.798 27.334 Z " fill="rgb(94,120,185)"/><path d=" M 149.311 65.6 C 151.755 63.169 155.723 63.169 158.167 65.6 C 160.611 68.026 160.611 71.969 158.167 74.397 C 155.723 76.826 151.755 76.826 149.311 74.397 C 146.866 71.969 146.864 68.026 149.311 65.6 Z " fill="rgb(235,48,145)"/></g></svg>