<?xml version="1.0" encoding="utf-8"?>
<!-- Generator: Adobe Illustrator 16.2.1, SVG Export Plug-In . SVG Version: 6.00 Build 0)  -->
<!DOCTYPE svg PUBLIC "-//W3C//DTD SVG 1.1//EN" "http://www.w3.org/Graphics/SVG/1.1/DTD/svg11.dtd">
<svg version="1.1" id="Layer_1" xmlns="http://www.w3.org/2000/svg" xmlns:xlink="http://www.w3.org/1999/xlink" x="0px" y="0px"
	 width="160px" height="140px" viewBox="0 0 160 140" enable-background="new 0 0 160 140" xml:space="preserve">
<g>
	<g>
		<path fill="#002554" d="M72.29,116.624c2.445-2.431,6.41-2.431,8.856,0c2.446,2.429,2.446,6.369,0,8.801
			c-2.446,2.431-6.412,2.431-8.856,0C69.844,122.993,69.844,119.053,72.29,116.624z"/>
		<path fill="#002554" d="M59.455,103.872c2.441-2.437,6.412-2.437,8.858-0.005c2.439,2.431,2.447,6.371,0,8.8
			c-2.446,2.435-6.417,2.435-8.858,0C57.008,110.238,57.008,106.298,59.455,103.872z"/>
		<path fill="#002554" d="M106.854,66.147c0.646-2.712,2.383-4.193,4.718-4.193c2.681,0,4.466,1.431,4.965,4.193H106.854z
			 M83.789,77.646c-2.584,0-3.873-1.23-4.072-3.75H71.4V67.85c1.544,2.384,4.769,3.832,9.757,4.911
			c3.771,0.791,5.957,0.983,5.957,2.661C87.114,76.658,85.921,77.646,83.789,77.646z M126.714,71.379
			c0-10.607-5.856-16.729-15.245-16.729c-8.836,0-15.044,5.972-15.044,14.608c0,0.187,0.009,0.372,0.013,0.556
			c-0.785-1.233-1.977-2.239-3.662-3.174c-1.639-0.885-4.77-1.284-9.139-2.171c-2.031-0.394-3.029-0.935-3.029-1.774
			c0-0.89,1.094-1.63,3.029-1.63c2.332,0,3.478,0.889,3.576,2.711h9.583c-0.099-5.966-4.718-9.126-13.405-9.126
			c-6.077,0-10.172,1.787-11.991,4.944v-4.155H60.822V71.48c0,2.264-1.637,3.894-3.97,3.894c-2.286,0-3.675-1.382-3.675-3.894
			V55.439H42.602v3.28c0.976,1.641,1.493,3.766,1.493,6.344v12.634c1.32,1.213,2.207,2.884,2.408,4.756
			c1.506,1.087,3.396,1.656,5.583,1.656c3.82,0,6.852-1.631,9.283-5.032v4.342H71.4v-3.847c2.099,3.099,6.303,4.635,12.636,4.635
			c8.337,0,13.048-3.121,13.556-8.523c2.16,5.342,7.191,8.523,14.126,8.523c7.697,0,13.208-3.748,14.55-9.424h-10.377
			c-0.599,1.332-1.988,2.119-3.875,2.119c-2.882,0-4.916-1.775-5.41-4.881h20.108V71.379z"/>
		<path fill="#002554" d="M42.601,58.72c-1.549-2.595-4.258-3.97-7.943-3.97c-3.922,0-6.702,1.582-8.787,4.885
			c-1.687-3.454-4.421-4.885-7.796-4.885c-3.873,0-6.455,1.481-8.439,4.885V55.44H0.002v27.977H10.43V67.925
			c0-3.058,0.842-4.539,3.276-4.539c2.085,0,3.128,1.43,3.128,4.193v15.838h10.377V67.43c0-2.563,1.241-4.044,3.278-4.044
			c2.333,0,3.129,1.38,3.129,4.044v10.388c1.371-1.32,3.24-2.135,5.303-2.135c1.5,0,2.899,0.435,4.079,1.178
			c0.39,0.244,0.756,0.525,1.094,0.837V65.064C44.094,62.486,43.578,60.361,42.601,58.72z"/>
		<path fill="#002554" d="M44.08,83.43c0,2.873-2.347,5.206-5.239,5.206c-2.895,0-5.242-2.333-5.242-5.206
			c0-2.879,2.347-5.209,5.242-5.209C41.733,78.221,44.08,80.551,44.08,83.43z"/>
		<path fill="#002554" d="M11.232,96.213c0.681,0,1.124-0.57,1.124-1.52c0-0.871-0.455-1.43-1.089-1.43h-0.554v2.949H11.232z
			 M9.083,91.99h2.355c0.656,0,1.155,0.086,1.551,0.384c0.648,0.485,1.033,1.329,1.033,2.349c0,0.995-0.308,1.707-1.012,2.312
			c-0.405,0.344-0.931,0.487-1.636,0.487H9.083V91.99z"/>
		<path fill="#002554" d="M18.341,91.99h4.54v1.339h-2.922v0.725h2.533v1.227h-2.533v0.849h2.973v1.393h-4.591V91.99z"/>
		<path fill="#002554" d="M26.583,91.99h1.729l0.776,2.865c0.12,0.453,0.193,0.856,0.193,1.23h0.056
			c0.021-0.515,0.079-0.92,0.163-1.223l0.799-2.873h1.658l-1.694,5.531h-1.938L26.583,91.99z"/>
		<path fill="#002554" d="M35.843,91.99h4.539v1.339h-2.924v0.725h2.533v1.227h-2.533v0.849h2.975v1.393h-4.59V91.99z"/>
		<path fill="#002554" d="M44.753,91.99h1.65v4.124h2.221v1.407h-3.871V91.99z"/>
		<path fill="#002554" d="M55.129,96.32c0.575,0,1.005-0.582,1.005-1.58c0-1.003-0.415-1.547-1.068-1.547
			c-0.578,0-1.005,0.582-1.005,1.576C54.061,95.775,54.468,96.32,55.129,96.32z M53.138,92.643c0.476-0.516,1.129-0.787,1.92-0.787
			c0.768,0,1.429,0.264,1.935,0.767c0.542,0.541,0.827,1.264,0.827,2.155c0,0.84-0.257,1.535-0.763,2.078
			c-0.483,0.522-1.137,0.802-1.928,0.802c-0.771,0-1.424-0.261-1.92-0.765c-0.557-0.553-0.834-1.266-0.834-2.152
			C52.375,93.886,52.616,93.208,53.138,92.643z"/>
		<path fill="#002554" d="M63.747,94.494h0.685c0.432,0,0.661-0.217,0.661-0.622c0-0.417-0.234-0.644-0.684-0.644h-0.662V94.494z
			 M62.117,91.957h2.35c1.48,0,2.269,0.72,2.269,1.986c0,1.074-0.776,1.838-1.877,1.838H63.77v1.705h-1.653V91.957z"/>
		<path fill="#002554" d="M71.035,91.99h2.279l0.555,2.335c0.106,0.432,0.17,0.834,0.17,1.228h0.048
			c0.023-0.472,0.072-0.874,0.15-1.221l0.55-2.342h2.284v5.531h-1.56v-2.815c0-0.476,0.015-0.856,0.078-1.138l-0.043-0.015
			c-0.028,0.189-0.063,0.409-0.119,0.665l-0.712,3.303h-1.338l-0.712-3.303c-0.059-0.275-0.1-0.496-0.123-0.665l-0.04,0.015
			c0.063,0.281,0.076,0.662,0.076,1.138v2.815h-1.544V91.99z"/>
		<path fill="#002554" d="M81.604,91.99h4.541v1.339h-2.926v0.725h2.533v1.227h-2.533v0.849h2.977v1.393h-4.592V91.99z"/>
		<path fill="#002554" d="M90.514,91.99h1.666l1.318,2.464c0.154,0.295,0.27,0.571,0.325,0.826l0.044-0.021
			c-0.12-0.341-0.135-0.723-0.135-1.175V91.99h1.566v5.531h-1.65l-1.347-2.572c-0.145-0.271-0.249-0.555-0.319-0.837l-0.043,0.022
			c0.106,0.324,0.142,0.713,0.142,1.18v2.207h-1.567V91.99z"/>
		<path fill="#002554" d="M99.539,91.99h5.074v1.372h-1.717v4.159h-1.644v-4.159h-1.714V91.99z"/>
		<path fill="#002554" d="M110.378,95.617v0.023c0,0.522,0.249,0.778,0.769,0.778c0.49,0,0.763-0.172,0.763-0.46
			c0-0.354-0.472-0.434-1.361-0.665c-1.231-0.326-1.813-0.849-1.813-1.724c0-1.057,0.847-1.721,2.343-1.721
			c1.45,0,2.269,0.672,2.297,1.805h-1.615c-0.005-0.432-0.227-0.617-0.725-0.617c-0.42,0-0.646,0.172-0.646,0.417
			c0,0.298,0.404,0.397,1.208,0.603c0.562,0.141,0.975,0.254,1.219,0.411c0.523,0.331,0.752,0.697,0.752,1.286
			c0,1.18-0.854,1.895-2.383,1.895c-1.63,0-2.457-0.651-2.508-2.031H110.378z"/>
		<path fill="#002554" d="M97.965,116.624c2.447-2.431,6.412-2.431,8.856,0c2.444,2.429,2.444,6.369,0,8.801
			c-2.449,2.431-6.412,2.431-8.856,0C95.513,122.993,95.513,119.053,97.965,116.624z"/>
		<path fill="#002554" d="M85.129,129.376c2.444-2.427,6.411-2.427,8.855,0c2.449,2.435,2.449,6.371,0,8.806
			c-2.444,2.428-6.411,2.428-8.855,0C82.677,135.752,82.677,131.811,85.129,129.376z"/>
		<path fill="#002554" d="M136.473,78.359c2.446-2.438,6.413-2.438,8.858-0.008c2.446,2.438,2.446,6.379,0,8.81
			c-2.445,2.431-6.412,2.431-8.858,0C134.03,84.73,134.03,80.79,136.473,78.359z"/>
		<path fill="#002554" d="M72.29,14.576c2.447-2.432,6.415-2.432,8.856,0c2.446,2.433,2.446,6.371,0,8.802
			c-2.441,2.432-6.412,2.432-8.856,0C69.844,20.947,69.844,17.009,72.29,14.576z"/>
		<path fill="#002554" d="M123.637,91.109c2.446-2.432,6.411-2.432,8.861,0c2.441,2.431,2.441,6.371-0.005,8.808
			c-2.445,2.426-6.41,2.426-8.856,0C121.195,97.48,121.195,93.54,123.637,91.109z"/>
		<path fill="#002554" d="M59.455,27.334c2.441-2.431,6.412-2.431,8.858,0c2.439,2.424,2.447,6.371,0,8.803
			c-2.446,2.431-6.417,2.423-8.858,0C57.008,33.705,57.008,29.765,59.455,27.334z"/>
		<path fill="#002554" d="M110.798,103.872c2.447-2.431,6.414-2.431,8.856,0c2.449,2.426,2.449,6.371,0,8.795
			c-2.442,2.435-6.409,2.435-8.856,0C108.355,110.243,108.355,106.298,110.798,103.872z"/>
		<path fill="#002554" d="M97.965,14.576c2.447-2.432,6.412-2.432,8.856,0c2.444,2.433,2.444,6.371,0,8.802
			c-2.444,2.432-6.409,2.432-8.856,0C95.521,20.947,95.521,17.009,97.965,14.576z"/>
		<path fill="#002554" d="M85.129,1.826c2.444-2.432,6.411-2.432,8.855,0c2.449,2.431,2.449,6.364,0,8.8
			c-2.444,2.426-6.411,2.426-8.855-0.005C82.679,8.19,82.679,4.257,85.129,1.826z"/>
		<path fill="#002554" d="M136.473,52.843c2.446-2.431,6.413-2.431,8.858,0c2.446,2.431,2.446,6.372,0.002,8.8
			c-2.447,2.431-6.414,2.431-8.86,0C134.03,59.215,134.03,55.274,136.473,52.843z"/>
		<path fill="#002554" d="M123.637,40.091c2.446-2.437,6.411-2.437,8.861,0c2.441,2.426,2.441,6.371,0,8.797
			c-2.45,2.431-6.415,2.431-8.861,0C121.195,46.462,121.195,42.517,123.637,40.091z"/>
		<path fill="#002554" d="M110.798,27.334c2.447-2.431,6.417-2.431,8.856,0c2.449,2.424,2.449,6.371,0,8.803
			c-2.442,2.423-6.409,2.423-8.856,0C108.355,33.705,108.355,29.758,110.798,27.334z"/>
		<path fill="#002554" d="M149.311,65.6c2.444-2.431,6.412-2.431,8.856,0c2.444,2.426,2.444,6.369,0,8.796
			c-2.444,2.43-6.412,2.43-8.856,0C146.866,71.969,146.864,68.026,149.311,65.6z"/>
	</g>
</g>
</svg>
