<?xml version="1.0" standalone="no"?><!-- Generator: Gravit.io --><svg xmlns="http://www.w3.org/2000/svg" xmlns:xlink="http://www.w3.org/1999/xlink" style="isolation:isolate" viewBox="0 0 774 384" width="774" height="384"><defs><clipPath id="_clipPath_ZzmEYYcVp57eRBn51MlZIc7ix6gX5DMR"><rect width="774" height="384"/></clipPath></defs><g clip-path="url(#_clipPath_ZzmEYYcVp57eRBn51MlZIc7ix6gX5DMR)"><g opacity="0.05"><rect x="0" y="0" width="774" height="384" transform="matrix(1,0,0,1,0,0)" fill="rgb(11,12,12)"/></g><rect x="90" y="90" width="594" height="204" transform="matrix(1,0,0,1,0,0)" fill="rgb(255,255,255)"/><path d=" M 646.115 138.506 C 646.115 160.26 632.997 175.833 612.95 183.003 L 660.161 244.302 C 673.788 228.017 682.001 207.055 682.001 184.172 C 682.001 145.549 658.629 112.391 625.246 98 C 639.743 106.96 646.115 121.795 646.115 138.506 Z " fill="rgb(11,12,12)"/><path d=" M 574.589 191.655 L 565.962 191.655 L 565.962 275.866 C 573.506 277.817 579.904 278 588.06 278 C 605.352 278 621.545 273.311 635.46 265.169 L 585.973 197.588 C 583.004 193.385 579.29 191.655 574.589 191.655 Z " fill="rgb(11,12,12)"/><path d=" M 583.993 114.777 L 565.969 114.777 L 565.969 165.947 L 584.736 165.947 C 594.14 165.947 612.95 161.744 612.95 139.496 C 612.95 123.18 600.08 114.777 583.993 114.777 Z " fill="rgb(11,12,12)"/><g opacity="0.1"><path d=" M 398.063 314.253 C 398.063 325.13 391.506 332.917 381.486 336.502 L 405.084 367.151 C 411.895 359.008 416 348.527 416 337.086 C 416 317.775 404.318 301.196 387.632 294 C 394.878 298.48 398.063 305.897 398.063 314.253 Z " fill="rgb(11,12,12)"/></g><g opacity="0.1"><path d=" M 362.312 340.827 L 358 340.827 L 358 382.933 C 361.771 383.908 364.969 384 369.046 384 C 377.689 384 385.782 381.655 392.738 377.585 L 368.002 343.794 C 366.518 341.693 364.662 340.827 362.312 340.827 Z " fill="rgb(11,12,12)"/></g><g opacity="0.1"><path d=" M 367.013 302.388 L 358.003 302.388 L 358.003 327.973 L 367.384 327.973 C 372.085 327.973 381.486 325.872 381.486 314.748 C 381.486 306.59 375.053 302.388 367.013 302.388 Z " fill="rgb(11,12,12)"/></g><g opacity="0.1"><path d=" M 704.253 180.937 C 715.13 180.937 722.917 187.494 726.502 197.514 L 757.151 173.916 C 749.008 167.105 738.527 163 727.086 163 C 707.775 163 691.196 174.682 684 191.368 C 688.48 184.122 695.897 180.937 704.253 180.937 Z " fill="rgb(11,12,12)"/></g><g opacity="0.1"><path d=" M 730.827 216.688 L 730.827 221 L 772.933 221 C 773.908 217.229 774 214.031 774 209.954 C 774 201.311 771.655 193.218 767.585 186.262 L 733.794 210.998 C 731.693 212.482 730.827 214.338 730.827 216.688 Z " fill="rgb(11,12,12)"/></g><g opacity="0.1"><path d=" M 692.388 211.987 L 692.388 220.997 L 717.973 220.997 L 717.973 211.616 C 717.973 206.915 715.872 197.514 704.748 197.514 C 696.59 197.514 692.388 203.947 692.388 211.987 Z " fill="rgb(11,12,12)"/></g><path d=" M 100.486 126.935 L 108.441 126.935 C 117.031 126.935 121.38 122.375 121.38 113.149 C 121.38 104.664 117.985 101.588 108.759 101.588 L 100.486 101.588 L 100.486 126.935 Z  M 116.607 132.662 L 133.789 163.523 C 133.894 163.63 133.894 163.735 134.001 163.842 C 134.106 164.161 134.106 164.373 134.213 164.478 L 134.213 164.584 C 134.213 164.902 133.789 165.22 132.939 165.325 L 126.682 166.599 L 126.258 166.599 C 125.622 166.599 125.304 166.387 124.985 165.751 L 108.334 133.403 L 100.486 133.403 L 100.486 164.161 C 100.486 165.325 100.274 165.537 99.108 165.537 L 93.38 165.537 C 92.213 165.537 92.001 165.325 92.001 164.161 L 92.001 96.286 C 92.001 95.013 92.213 94.801 93.38 94.801 L 109.29 94.801 C 117.137 94.801 120.954 95.648 124.137 98.195 C 127.849 101.059 130.077 106.36 130.077 112.512 C 129.97 122.48 125.197 129.799 116.607 132.662 Z " fill="rgb(11,12,12)"/><path d=" M 173.555 141.253 L 173.555 140.298 C 173.555 127.889 169.312 121.102 161.465 121.102 C 153.404 121.102 149.163 127.572 149.163 139.979 C 149.163 153.766 153.192 160.447 161.465 160.447 C 169.419 160.447 173.236 154.402 173.555 141.253 Z  M 181.933 140.51 C 181.933 157.161 173.979 166.916 160.722 166.916 C 148.102 166.916 140.783 157.371 140.783 141.041 C 140.783 124.389 148.632 114.633 161.784 114.633 C 174.509 114.633 181.933 124.072 181.933 140.51 Z " fill="rgb(11,12,12)"/><path d=" M 196.478 116.011 L 196.478 101.907 C 196.478 101.269 196.902 100.847 197.538 100.634 L 202.947 99.148 L 203.265 99.043 C 203.372 99.043 203.372 98.938 203.477 98.938 C 204.113 98.938 204.22 99.148 204.22 100.103 L 204.22 116.011 L 219.705 116.011 C 220.34 116.011 220.658 116.223 220.658 116.754 C 220.658 116.859 220.658 116.966 220.552 117.39 L 219.386 121.42 C 219.174 122.163 218.855 122.375 218.007 122.375 L 204.22 122.375 L 204.22 151.433 C 204.22 158.116 205.493 159.918 210.477 159.918 C 213.022 159.918 215.462 159.175 219.705 157.266 C 219.917 157.161 220.234 157.054 220.447 157.054 C 220.764 157.054 220.976 157.266 221.083 157.69 L 222.355 161.933 L 222.462 162.251 L 222.462 162.463 C 222.462 162.887 222.25 163.099 221.612 163.523 C 217.583 165.537 213.234 166.599 209.098 166.599 C 199.871 166.599 196.478 162.463 196.478 151.54 L 196.478 122.375 L 189.159 122.375 C 188.1 122.375 187.888 122.268 187.888 121.208 L 187.888 117.178 C 187.888 116.223 188.1 116.011 189.159 116.011 L 196.478 116.011 Z " fill="rgb(11,12,12)"/><path d=" M 238.053 121.42 C 243.567 116.435 247.81 114.633 253.855 114.633 C 263.082 114.633 266.475 118.768 266.475 130.117 L 266.475 164.373 C 266.475 165.325 266.263 165.537 265.309 165.537 L 259.9 165.537 C 259.052 165.537 258.733 165.325 258.733 164.796 L 258.733 164.373 L 258.733 130.011 C 258.733 123.542 256.93 121.314 251.628 121.314 C 247.493 121.314 243.779 123.118 238.053 127.784 L 238.053 164.373 C 238.053 165.325 237.841 165.537 236.886 165.537 L 231.477 165.537 C 230.416 165.537 230.204 165.325 230.204 164.373 L 230.204 93.529 C 230.204 92.891 230.629 92.467 231.265 92.255 L 236.674 90.982 L 236.993 90.877 L 237.417 90.877 C 237.841 90.877 238.053 91.196 238.053 92.044 L 238.053 121.42 Z " fill="rgb(11,12,12)"/><path d=" M 288.744 136.162 L 311.016 136.162 C 310.803 126.299 306.879 120.89 299.986 120.89 C 293.092 120.89 289.168 126.087 288.744 136.162 Z  M 288.637 142.524 C 289.168 153.766 293.941 159.918 302.319 159.918 C 305.924 159.918 309.848 158.752 314.197 156.205 C 314.516 155.994 314.94 155.888 315.152 155.888 C 315.471 155.888 315.788 156.1 315.893 156.417 L 317.804 160.447 C 317.909 160.871 318.014 160.978 318.014 161.19 C 318.014 162.144 316.318 163.206 312.819 164.69 C 309.107 166.175 305.394 166.916 301.577 166.916 C 288.53 166.916 280.152 156.842 280.152 140.829 C 280.152 124.813 288.108 114.633 300.517 114.633 C 312.288 114.633 319.182 123.011 319.394 137.539 L 319.394 140.617 C 319.394 142.1 319.182 142.524 318.226 142.524 L 288.637 142.524 Z " fill="rgb(11,12,12)"/><path d=" M 339.12 123.223 L 340.286 121.844 C 345.589 116.118 347.923 114.633 351.952 114.633 C 353.438 114.633 355.028 114.952 356.407 115.587 C 356.832 115.799 357.149 116.011 357.149 116.33 C 357.149 116.435 357.044 116.754 356.937 117.071 L 354.392 122.692 C 354.285 123.011 354.073 123.118 353.862 123.118 C 353.756 123.118 353.65 123.118 353.544 123.011 C 351.74 122.375 351.316 122.375 350.362 122.375 C 347.71 122.375 345.271 124.178 340.181 130.222 L 340.181 164.373 C 340.181 165.432 339.969 165.537 339.015 165.537 L 333.605 165.537 C 332.546 165.537 332.439 165.325 332.439 164.373 L 332.439 133.403 C 332.439 125.239 332.015 123.435 329.894 119.511 C 329.575 118.982 329.47 118.768 329.47 118.45 C 329.47 118.133 329.682 117.815 330.106 117.604 L 334.348 114.845 C 334.56 114.74 334.984 114.633 335.196 114.633 C 335.832 114.633 336.893 116.118 337.848 118.663 C 338.484 120.359 338.803 121.102 339.12 123.223 Z " fill="rgb(11,12,12)"/><path d=" M 373.59 121.42 C 379.104 116.435 383.347 114.633 389.392 114.633 C 398.618 114.633 402.012 118.768 402.012 130.117 L 402.012 164.373 C 402.012 165.325 401.8 165.537 400.846 165.537 L 395.437 165.537 C 394.589 165.537 394.27 165.325 394.27 164.796 L 394.27 164.373 L 394.27 130.011 C 394.27 123.542 392.468 121.314 387.165 121.314 C 383.028 121.314 379.316 123.118 373.59 127.784 L 373.59 164.373 C 373.59 165.325 373.377 165.537 372.424 165.537 L 367.015 165.537 C 365.955 165.537 365.741 165.325 365.741 164.373 L 365.741 93.529 C 365.741 92.891 366.167 92.467 366.803 92.255 L 372.212 90.982 L 372.529 90.877 L 372.953 90.877 C 373.377 90.877 373.59 91.196 373.59 92.044 L 373.59 121.42 Z " fill="rgb(11,12,12)"/><path d=" M 441.568 140.934 C 428.629 141.041 422.265 144.646 422.265 151.857 C 422.265 156.735 425.341 160.13 429.69 160.13 C 433.402 160.13 437.007 158.326 441.568 154.19 L 441.568 140.934 Z  M 441.568 134.465 L 441.568 131.07 C 441.568 124.389 438.916 121.844 432.024 121.844 C 428.098 121.844 424.81 122.692 419.825 124.92 C 419.508 125.025 419.191 125.132 419.084 125.132 C 418.765 125.132 418.447 124.92 418.341 124.601 L 416.856 120.466 C 416.644 120.042 416.644 119.935 416.644 119.723 C 416.644 118.982 417.492 118.345 420.356 117.285 C 424.386 115.694 428.522 114.845 433.083 114.845 C 444.113 114.845 449.309 119.511 449.309 129.375 L 449.309 148.781 C 449.309 155.994 449.841 158.433 452.068 162.356 C 452.28 162.568 452.28 162.78 452.28 162.887 C 452.28 163.099 452.173 163.418 451.961 163.523 L 447.401 166.28 C 447.081 166.494 446.764 166.599 446.552 166.599 C 445.597 166.599 443.795 163.523 442.733 160.13 C 437.962 164.69 433.614 166.599 427.991 166.599 C 419.613 166.599 414.311 161.085 414.311 152.493 C 414.311 140.722 423.22 134.784 441.568 134.465 Z " fill="rgb(11,12,12)"/><path d=" M 473.597 120.678 C 479.216 116.33 483.247 114.633 488.125 114.633 C 493.005 114.633 496.186 116.542 497.989 120.678 C 504.141 116.33 508.276 114.633 513.049 114.633 C 520.899 114.633 524.185 118.875 524.185 129.161 L 524.185 164.373 C 524.185 165.325 523.973 165.537 523.018 165.537 L 517.716 165.537 C 516.656 165.537 516.442 165.325 516.442 164.373 L 516.442 128.844 C 516.442 123.648 514.428 121.314 509.868 121.314 C 506.581 121.314 504.034 122.268 499.369 125.451 L 499.369 164.796 C 499.369 165.325 499.05 165.537 498.201 165.537 L 492.899 165.537 C 491.944 165.537 491.732 165.325 491.732 164.373 L 491.732 128.949 C 491.732 123.86 489.504 121.314 485.049 121.314 C 481.763 121.314 478.899 122.48 474.764 125.663 L 474.764 164.373 C 474.764 165.325 474.55 165.537 473.597 165.537 L 468.293 165.537 C 467.445 165.537 467.021 165.325 467.021 164.796 L 467.021 164.373 L 467.021 127.253 C 467.021 123.966 466.703 122.056 465.748 119.723 L 465.219 118.663 C 465.219 118.45 465.112 118.345 465.112 118.133 C 465.112 117.921 465.324 117.604 465.643 117.497 L 469.779 115.057 C 469.99 114.952 470.414 114.845 470.628 114.845 C 471.476 114.845 472.748 117.285 473.597 120.678 Z " fill="rgb(11,12,12)"/><path d=" M 169.721 265.077 C 174.67 265.077 176.547 266.557 176.547 270.368 C 176.547 274.121 174.614 275.543 169.608 275.543 L 167.047 275.543 L 167.047 265.077 L 169.721 265.077 Z  M 169.95 249.209 C 173.703 249.209 175.411 250.744 175.411 254.157 C 175.411 257.513 173.59 259.391 170.177 259.391 L 169.381 259.391 L 167.047 259.391 L 167.047 249.209 L 169.95 249.209 Z  M 182.804 253.361 C 182.804 250.517 181.723 247.787 179.903 246.024 C 177.912 244.147 175.978 243.634 169.95 243.634 L 160.962 243.634 C 159.939 243.634 159.824 243.806 159.824 244.773 L 159.824 280.435 C 159.824 281.46 159.939 281.573 160.962 281.573 L 170.404 281.573 C 174.329 281.573 175.352 281.46 177.343 280.947 C 181.269 279.922 184.169 275.601 184.169 270.823 C 184.169 266.272 181.611 262.859 177.23 261.722 C 181.155 259.902 182.804 257.4 182.804 253.361 Z " fill-rule="evenodd" fill="rgb(11,12,12)"/><path d=" M 194.722 267.979 C 194.722 261.494 196.032 258.879 199.273 258.879 C 202.516 258.879 203.824 261.552 203.824 267.921 C 203.824 274.291 202.516 276.965 199.273 276.965 C 196.032 276.965 194.722 274.35 194.722 267.979 Z  M 199.387 253.304 C 191.878 253.304 187.272 258.879 187.272 267.866 C 187.272 277.135 191.708 282.539 199.33 282.539 C 206.668 282.539 211.275 276.908 211.275 267.979 C 211.275 258.822 206.839 253.304 199.387 253.304 Z " fill-rule="evenodd" fill="rgb(11,12,12)"/><path d=" M 220.716 253.361 C 220.546 253.361 220.375 253.418 220.09 253.475 L 215.597 255.067 C 215.255 255.182 215.085 255.409 215.085 255.693 C 215.085 255.806 215.142 255.978 215.198 256.148 L 215.541 256.944 C 216.45 259.049 216.849 260.983 216.849 263.827 L 216.849 280.607 C 216.849 281.46 216.962 281.573 217.759 281.573 L 222.877 281.573 C 223.73 281.573 223.845 281.46 223.845 280.607 L 223.845 262.235 C 225.551 260.357 226.859 259.561 228.054 259.561 C 228.68 259.561 229.59 259.731 230.272 260.072 C 230.443 260.13 230.556 260.13 230.613 260.13 C 230.841 260.13 230.955 260.017 231.125 259.618 L 232.774 255.125 C 232.831 254.953 232.889 254.67 232.889 254.556 C 232.889 253.93 231.409 253.304 229.76 253.304 C 227.315 253.304 225.721 254.214 223.39 257.001 L 222.82 257.627 C 222.253 255.01 221.399 253.361 220.716 253.361 Z " fill-rule="evenodd" fill="rgb(11,12,12)"/><path d=" M 240.491 267.979 C 240.491 261.494 241.8 258.879 245.041 258.879 C 248.284 258.879 249.592 261.552 249.592 267.921 C 249.592 274.291 248.284 276.965 245.041 276.965 C 241.8 276.965 240.491 274.35 240.491 267.979 Z  M 245.156 253.304 C 237.647 253.304 233.039 258.879 233.039 267.866 C 233.039 277.135 237.477 282.539 245.099 282.539 C 252.436 282.539 257.044 276.908 257.044 267.979 C 257.044 258.822 252.606 253.304 245.156 253.304 Z " fill-rule="evenodd" fill="rgb(11,12,12)"/><path d=" M 272.514 276.965 C 270.012 276.965 269.159 275.658 269.159 271.96 L 269.159 271.449 L 269.159 254.271 C 269.159 253.645 268.987 253.361 268.533 253.361 C 268.418 253.361 268.248 253.418 268.077 253.418 L 262.959 254.556 C 262.218 254.726 262.104 254.783 262.104 255.579 L 262.104 271.733 C 262.104 276.965 262.39 278.273 263.982 280.151 C 265.29 281.686 267.452 282.539 270.239 282.539 C 273.425 282.539 275.414 281.686 277.918 279.297 C 278.315 281.233 278.941 282.312 279.566 282.312 L 279.909 282.312 C 280.022 282.256 280.079 282.256 280.192 282.256 L 284.8 281.174 C 285.198 281.117 285.311 281.004 285.311 280.72 C 285.311 280.607 285.256 280.435 285.198 280.208 C 284.345 278.616 284.118 277.364 284.118 274.633 L 284.118 254.271 C 284.118 253.645 284.004 253.361 283.605 253.361 C 283.549 253.361 283.435 253.361 283.322 253.418 L 283.093 253.418 L 277.918 254.556 C 277.178 254.726 277.121 254.783 277.121 255.579 L 277.121 274.917 C 275.471 276.339 274.049 276.965 272.514 276.965 Z " fill-rule="evenodd" fill="rgb(11,12,12)"/><path d=" M 305.178 273.781 C 303.983 275.032 302.505 275.713 300.856 275.713 C 298.125 275.713 296.703 272.871 296.703 267.524 C 296.703 262.063 298.352 259.106 301.31 259.106 C 302.618 259.106 303.643 259.561 305.178 260.756 L 305.178 273.781 Z  M 305.462 282.766 C 305.462 286.123 304.324 287.374 301.253 287.374 C 298.808 287.374 295.85 286.635 293.062 285.326 C 292.835 285.213 292.664 285.156 292.551 285.156 C 292.266 285.156 292.039 285.326 291.925 285.725 L 290.787 289.536 C 290.73 289.706 290.673 289.934 290.673 290.105 C 290.673 290.447 290.959 290.731 291.469 291.014 C 294.2 292.209 298.579 293.119 301.822 293.119 C 308.591 293.119 312.231 289.651 312.231 283.165 C 312.231 282.539 312.231 281.46 312.174 279.811 C 312.061 276.852 312.003 273.781 312.003 270.823 L 312.003 262.575 C 312.003 260.13 312.288 258.48 313.198 256.377 L 313.425 255.806 C 313.483 255.636 313.54 255.522 313.54 255.409 C 313.54 255.125 313.368 254.953 313.027 254.84 L 308.705 253.248 C 308.534 253.191 308.306 253.134 308.136 253.134 C 307.623 253.134 306.886 254.157 306.201 255.863 C 303.983 253.93 302.391 253.304 299.831 253.304 C 293.574 253.304 289.707 258.935 289.707 267.921 C 289.707 276.112 293.177 281.233 298.751 281.233 C 301.139 281.233 303.13 280.607 305.178 279.185 C 305.405 280.777 305.462 281.857 305.462 282.766 Z " fill-rule="evenodd" fill="rgb(11,12,12)"/><path d=" M 326.451 242.498 C 326.451 241.815 326.28 241.53 325.882 241.53 C 325.766 241.53 325.655 241.587 325.369 241.587 L 320.251 242.668 C 319.454 242.838 319.398 242.895 319.398 243.691 L 319.398 280.607 C 319.398 281.46 319.511 281.573 320.364 281.573 L 325.483 281.573 C 326.336 281.573 326.451 281.46 326.451 280.607 L 326.451 261.267 C 328.27 259.561 329.522 258.992 331.17 258.992 C 333.388 258.992 334.243 260.244 334.243 263.6 L 334.243 280.607 C 334.243 281.46 334.356 281.573 335.209 281.573 L 340.33 281.573 C 341.183 281.573 341.296 281.46 341.296 280.607 L 341.296 262.006 C 341.296 259.162 341.011 257.799 340.158 256.318 C 339.078 254.441 336.802 253.304 334.073 253.304 C 331.17 253.304 328.725 254.386 326.451 256.547 L 326.451 242.498 Z " fill-rule="evenodd" fill="rgb(11,12,12)"/><path d=" M 385.101 246.877 C 385.101 246.593 384.816 246.251 384.418 245.852 C 381.915 243.861 378.674 242.725 375.601 242.725 C 371.848 242.725 368.548 244.203 366.045 247.047 C 363.031 250.517 361.666 255.237 361.666 262.178 C 361.666 275.43 366.671 282.539 375.942 282.539 C 378.958 282.539 381.232 281.913 383.622 280.435 C 384.759 279.811 385.158 279.297 385.158 278.786 C 385.158 278.616 385.101 278.387 385.044 278.217 L 382.825 274.35 C 382.654 274.008 382.484 273.894 382.257 273.894 C 382.144 273.894 381.972 274.008 381.745 274.121 C 379.869 275.601 378.617 276.112 376.796 276.112 C 371.905 276.112 369.63 271.334 369.63 260.983 C 369.63 253.019 371.733 249.095 376 249.095 C 377.479 249.095 378.958 249.664 380.493 250.801 C 381.062 251.256 381.403 251.542 381.631 251.654 C 381.801 251.769 381.972 251.826 382.144 251.826 C 382.371 251.826 382.484 251.769 382.713 251.427 L 384.986 247.333 C 385.044 247.161 385.101 246.991 385.101 246.877 Z " fill-rule="evenodd" fill="rgb(11,12,12)"/><path d=" M 395.21 267.979 C 395.21 261.494 396.518 258.879 399.759 258.879 C 403.002 258.879 404.311 261.552 404.311 267.921 C 404.311 274.291 403.002 276.965 399.759 276.965 C 396.518 276.965 395.21 274.35 395.21 267.979 Z  M 399.873 253.304 C 392.366 253.304 387.758 258.879 387.758 267.866 C 387.758 277.135 392.196 282.539 399.816 282.539 C 407.154 282.539 411.761 276.908 411.761 267.979 C 411.761 258.822 407.325 253.304 399.873 253.304 Z " fill-rule="evenodd" fill="rgb(11,12,12)"/><path d=" M 426.658 276.965 C 424.156 276.965 423.302 275.658 423.302 271.96 L 423.302 271.449 L 423.302 254.271 C 423.302 253.645 423.131 253.361 422.676 253.361 C 422.562 253.361 422.392 253.418 422.222 253.418 L 417.103 254.556 C 416.362 254.726 416.249 254.783 416.249 255.579 L 416.249 271.733 C 416.249 276.965 416.534 278.273 418.126 280.151 C 419.435 281.686 421.596 282.539 424.383 282.539 C 427.569 282.539 429.559 281.686 432.062 279.297 C 432.461 281.233 433.085 282.312 433.711 282.312 L 434.053 282.312 C 434.166 282.256 434.223 282.256 434.337 282.256 L 438.943 281.174 C 439.342 281.117 439.457 281.004 439.457 280.72 C 439.457 280.607 439.399 280.435 439.342 280.208 C 438.489 278.616 438.262 277.364 438.262 274.633 L 438.262 254.271 C 438.262 253.645 438.147 253.361 437.75 253.361 C 437.693 253.361 437.579 253.361 437.466 253.418 L 437.239 253.418 L 432.062 254.556 C 431.323 254.726 431.266 254.783 431.266 255.579 L 431.266 274.917 C 429.617 276.339 428.195 276.965 426.658 276.965 Z " fill-rule="evenodd" fill="rgb(11,12,12)"/><path d=" M 450.716 253.076 L 450.43 253.076 C 450.317 253.134 450.26 253.134 450.205 253.191 L 445.313 255.01 C 444.971 255.125 444.799 255.295 444.799 255.522 C 444.799 255.636 444.856 255.806 444.971 256.035 C 445.767 257.684 446.166 259.675 446.166 262.063 L 446.166 280.607 C 446.166 281.46 446.278 281.573 447.076 281.573 L 452.194 281.573 C 453.049 281.573 453.161 281.46 453.161 280.607 L 453.161 261.267 C 455.038 259.618 456.347 258.992 457.997 258.992 C 460.215 258.992 461.182 260.357 461.182 263.6 L 461.182 280.607 C 461.182 281.46 461.239 281.573 462.091 281.573 L 467.212 281.573 C 468.065 281.573 468.178 281.46 468.178 280.607 L 468.178 262.063 C 468.178 256.035 465.96 253.304 461.012 253.304 C 457.882 253.304 455.494 254.327 452.707 256.831 C 452.083 254.441 451.398 253.076 450.716 253.076 Z " fill-rule="evenodd" fill="rgb(11,12,12)"/><path d=" M 491.213 275.089 C 491.098 275.089 490.871 275.203 490.642 275.373 C 489.107 276.454 487.628 276.965 486.151 276.965 C 482.282 276.965 480.575 274.236 480.575 268.093 C 480.575 261.779 482.282 258.879 486.093 258.879 C 487.686 258.879 488.766 259.333 490.756 260.756 C 490.984 260.926 491.156 260.983 491.325 260.983 C 491.497 260.983 491.665 260.868 491.782 260.584 L 493.715 257.115 C 493.828 256.944 493.885 256.659 493.885 256.489 C 493.885 256.205 493.658 255.921 493.259 255.579 C 491.497 254.157 488.821 253.304 486.036 253.304 C 478.128 253.304 473.295 259.049 473.295 268.433 C 473.295 277.364 477.616 282.539 485.183 282.539 C 487.344 282.539 489.447 282.085 491.098 281.289 C 492.463 280.663 493.202 280.038 493.202 279.468 C 493.202 279.355 493.146 279.185 492.975 278.843 L 491.665 275.486 C 491.553 275.203 491.44 275.089 491.213 275.089 Z " fill-rule="evenodd" fill="rgb(11,12,12)"/><path d=" M 506.197 241.702 C 503.695 241.702 501.706 243.691 501.706 246.138 C 501.706 248.64 503.695 250.631 506.142 250.631 C 508.645 250.631 510.636 248.64 510.636 246.138 C 510.636 243.691 508.645 241.702 506.197 241.702 Z  M 502.844 280.607 C 502.844 281.46 502.957 281.573 503.81 281.573 L 508.929 281.573 C 509.725 281.573 509.838 281.46 509.838 280.607 L 509.838 255.237 C 509.838 254.386 509.725 254.271 508.929 254.271 L 498.633 254.271 C 497.837 254.271 497.722 254.386 497.722 255.237 L 497.722 258.423 C 497.722 259.276 497.837 259.391 498.633 259.391 L 502.844 259.391 L 502.844 280.607 Z " fill-rule="evenodd" fill="rgb(11,12,12)"/><path d=" M 516.945 242.668 C 516.377 242.782 516.092 243.124 516.092 243.691 L 516.092 271.79 L 516.149 274.121 C 516.149 277.648 516.548 279.185 517.799 280.607 C 518.879 281.8 520.755 282.539 522.918 282.539 C 524.682 282.539 526.56 282.14 527.98 281.516 C 528.264 281.403 528.492 281.174 528.492 281.004 C 528.492 280.947 528.436 280.89 528.436 280.777 L 528.377 280.491 L 527.241 275.999 C 527.185 275.772 527.012 275.658 526.842 275.658 C 526.728 275.658 526.615 275.658 526.443 275.713 C 525.762 275.942 525.193 276.055 524.624 276.055 C 523.43 276.055 523.145 275.43 523.145 273.212 L 523.145 271.334 L 523.145 242.498 C 523.145 241.815 522.975 241.53 522.576 241.53 C 522.519 241.53 522.404 241.53 522.292 241.587 L 521.893 241.643 L 516.945 242.668 Z " fill-rule="evenodd" fill="rgb(11,12,12)"/><path d=" M 241.132 199.397 L 236.696 185.461 C 236.411 184.665 236.297 184.552 235.444 184.552 L 229.984 184.552 C 229.017 184.552 228.904 184.722 228.847 185.688 L 227.253 221.352 L 227.253 221.693 C 227.253 222.319 227.482 222.489 228.335 222.489 L 232.828 222.489 C 233.795 222.489 233.966 222.375 233.966 221.352 L 234.421 202.583 L 234.421 200.819 L 234.421 198.374 L 234.421 196.268 L 234.363 193.88 C 235.159 197.576 236.014 201.046 236.411 202.411 L 239.483 213.161 C 239.767 214.071 239.824 214.129 240.735 214.129 L 244.091 214.129 C 244.999 214.129 245.058 214.071 245.341 213.218 L 248.926 201.899 C 249.494 199.966 250.063 197.805 250.972 193.88 L 250.916 196.098 L 250.916 197.918 C 250.859 198.715 250.859 199.397 250.859 199.91 C 250.859 200.592 250.859 201.216 250.916 201.842 L 251.256 221.352 C 251.314 222.319 251.428 222.489 252.451 222.489 L 257.456 222.489 C 258.254 222.489 258.538 222.319 258.538 221.693 L 258.538 221.295 L 256.775 185.688 C 256.717 184.722 256.547 184.552 255.637 184.552 L 250.405 184.552 C 249.494 184.552 249.437 184.609 249.153 185.461 L 244.488 199.34 C 243.976 200.762 243.579 202.184 243.067 204.117 L 242.611 205.768 C 241.985 202.865 241.416 200.42 241.132 199.397 Z " fill-rule="evenodd" fill="rgb(11,12,12)"/><path d=" M 275.664 199.284 C 278.452 199.284 279.531 200.989 279.645 205.597 L 271 205.597 C 271.512 201.046 272.764 199.284 275.664 199.284 Z  M 285.732 210.716 C 286.755 210.716 286.983 210.431 286.983 209.294 C 286.983 199.284 283.343 194.22 276.005 194.22 C 268.725 194.22 263.947 200.136 263.947 209.065 C 263.947 218.395 268.269 223.457 276.29 223.457 C 278.735 223.457 280.897 223.058 283.173 222.205 C 285.448 221.352 286.244 220.84 286.244 220.157 C 286.244 219.987 286.187 219.874 286.074 219.531 L 284.652 216.289 C 284.537 215.948 284.31 215.778 284.026 215.778 C 283.854 215.778 283.627 215.835 283.343 216.007 C 281.182 217.143 279.076 217.712 276.973 217.712 C 272.934 217.712 271 215.437 270.886 210.716 L 285.732 210.716 Z " fill-rule="evenodd" fill="rgb(11,12,12)"/><path d=" M 290.712 195.188 C 289.857 195.188 289.744 195.245 289.744 196.098 L 289.744 199.34 C 289.744 200.136 289.857 200.25 290.712 200.25 L 294.465 200.25 L 294.465 214.755 C 294.465 217.427 294.635 218.452 295.261 219.817 C 296.343 222.148 298.731 223.457 301.974 223.457 C 304.077 223.457 306.523 222.944 308.458 222.148 C 309.027 221.92 309.254 221.693 309.254 221.239 C 309.254 221.124 309.254 221.067 309.197 220.953 L 309.14 220.67 L 308.231 216.803 C 308.116 216.404 307.945 216.234 307.662 216.234 C 307.548 216.234 307.376 216.234 307.206 216.347 C 305.158 217.143 304.647 217.257 303.566 217.257 C 301.859 217.257 301.518 216.631 301.518 213.73 L 301.518 200.25 L 306.979 200.25 C 307.605 200.25 307.832 200.136 307.945 199.454 L 308.685 196.211 C 308.685 196.098 308.741 196.041 308.741 195.984 L 308.741 195.757 C 308.741 195.302 308.571 195.188 307.832 195.188 L 301.518 195.188 L 301.518 187.396 C 301.518 186.713 301.348 186.428 300.949 186.428 C 300.892 186.428 300.836 186.486 300.665 186.486 L 300.493 186.486 L 295.375 187.224 C 294.579 187.339 294.465 187.452 294.465 188.192 L 294.465 195.188 L 290.712 195.188 Z " fill-rule="evenodd" fill="rgb(11,12,12)"/><path d=" M 318.229 194.277 C 318.059 194.277 317.889 194.335 317.604 194.392 L 313.111 195.984 C 312.769 196.098 312.598 196.326 312.598 196.61 C 312.598 196.724 312.655 196.894 312.712 197.064 L 313.054 197.86 C 313.964 199.966 314.362 201.899 314.362 204.743 L 314.362 221.522 C 314.362 222.375 314.476 222.489 315.272 222.489 L 320.391 222.489 C 321.245 222.489 321.357 222.375 321.357 221.522 L 321.357 203.151 C 323.064 201.273 324.373 200.477 325.566 200.477 C 326.192 200.477 327.103 200.647 327.786 200.989 C 327.956 201.046 328.07 201.046 328.126 201.046 C 328.355 201.046 328.468 200.933 328.639 200.535 L 330.288 196.041 C 330.344 195.871 330.401 195.585 330.401 195.472 C 330.401 194.846 328.924 194.22 327.273 194.22 C 324.828 194.22 323.235 195.131 320.903 197.918 L 320.334 198.544 C 319.765 195.927 318.912 194.277 318.229 194.277 Z " fill-rule="evenodd" fill="rgb(11,12,12)"/><path d=" M 339.19 208.895 C 339.19 202.411 340.498 199.796 343.741 199.796 C 346.982 199.796 348.291 202.468 348.291 208.838 C 348.291 215.209 346.982 217.882 343.741 217.882 C 340.498 217.882 339.19 215.266 339.19 208.895 Z  M 343.855 194.22 C 336.346 194.22 331.74 199.796 331.74 208.782 C 331.74 218.053 336.176 223.457 343.798 223.457 C 351.134 223.457 355.742 217.826 355.742 208.895 C 355.742 199.738 351.306 194.22 343.855 194.22 Z " fill-rule="evenodd" fill="rgb(11,12,12)"/><path d=" M 373.764 199.796 C 376.891 199.796 378.258 202.525 378.258 208.611 C 378.258 215.721 377.007 218.109 373.308 218.109 C 371.886 218.109 370.92 217.826 369.498 217.086 L 369.498 201.842 C 371.147 200.363 372.285 199.796 373.764 199.796 Z  M 367.108 194.22 C 366.994 194.22 366.881 194.277 366.597 194.392 L 361.819 196.438 C 361.363 196.61 361.25 196.724 361.25 197.007 C 361.25 197.122 361.307 197.236 361.363 197.406 C 362.216 199.511 362.502 200.706 362.502 202.865 L 362.502 233.24 C 362.502 233.921 362.615 234.15 363.012 234.15 C 363.071 234.15 363.355 234.15 363.526 234.093 L 368.702 233.011 C 369.441 232.841 369.498 232.785 369.498 231.988 L 369.498 221.978 C 371.489 223.058 372.911 223.457 375.129 223.457 C 381.898 223.457 385.254 218.452 385.254 208.326 C 385.254 199.17 381.898 194.22 375.698 194.22 C 372.968 194.22 370.92 195.075 368.645 197.122 C 368.246 195.415 367.62 194.22 367.108 194.22 Z " fill-rule="evenodd" fill="rgb(11,12,12)"/><path d=" M 397.193 208.895 C 397.193 202.411 398.501 199.796 401.742 199.796 C 404.985 199.796 406.293 202.468 406.293 208.838 C 406.293 215.209 404.985 217.882 401.742 217.882 C 398.501 217.882 397.193 215.266 397.193 208.895 Z  M 401.857 194.22 C 394.349 194.22 389.741 199.796 389.741 208.782 C 389.741 218.053 394.178 223.457 401.8 223.457 C 409.137 223.457 413.745 217.826 413.745 208.895 C 413.745 199.738 409.307 194.22 401.857 194.22 Z " fill-rule="evenodd" fill="rgb(11,12,12)"/><path d=" M 420.845 183.586 C 420.276 183.699 419.992 184.039 419.992 184.609 L 419.992 212.705 L 420.049 215.039 C 420.049 218.565 420.446 220.1 421.698 221.522 C 422.779 222.717 424.655 223.457 426.816 223.457 C 428.58 223.457 430.458 223.058 431.88 222.434 C 432.164 222.319 432.392 222.092 432.392 221.92 C 432.392 221.865 432.336 221.808 432.336 221.693 L 432.277 221.409 L 431.141 216.914 C 431.084 216.687 430.912 216.574 430.742 216.574 C 430.628 216.574 430.515 216.574 430.345 216.631 C 429.66 216.858 429.093 216.973 428.524 216.973 C 427.329 216.973 427.045 216.347 427.045 214.129 L 427.045 212.251 L 427.045 183.414 C 427.045 182.733 426.875 182.447 426.476 182.447 C 426.419 182.447 426.306 182.447 426.191 182.504 L 425.793 182.561 L 420.845 183.586 Z " fill-rule="evenodd" fill="rgb(11,12,12)"/><path d=" M 441.039 182.617 C 438.537 182.617 436.546 184.609 436.546 187.054 C 436.546 189.557 438.537 191.548 440.982 191.548 C 443.486 191.548 445.477 189.557 445.477 187.054 C 445.477 184.609 443.486 182.617 441.039 182.617 Z  M 437.685 221.522 C 437.685 222.375 437.798 222.489 438.651 222.489 L 443.77 222.489 C 444.567 222.489 444.681 222.375 444.681 221.522 L 444.681 196.154 C 444.681 195.302 444.567 195.188 443.77 195.188 L 433.476 195.188 C 432.679 195.188 432.564 195.302 432.564 196.154 L 432.564 199.34 C 432.564 200.193 432.679 200.307 433.476 200.307 L 437.685 200.307 L 437.685 221.522 Z " fill-rule="evenodd" fill="rgb(11,12,12)"/><path d=" M 451.35 195.188 C 450.495 195.188 450.382 195.245 450.382 196.098 L 450.382 199.34 C 450.382 200.136 450.495 200.25 451.35 200.25 L 455.105 200.25 L 455.105 214.755 C 455.105 217.427 455.275 218.452 455.901 219.817 C 456.981 222.148 459.371 223.457 462.612 223.457 C 464.718 223.457 467.163 222.944 469.096 222.148 C 469.667 221.92 469.892 221.693 469.892 221.239 C 469.892 221.124 469.892 221.067 469.835 220.953 L 469.78 220.67 L 468.869 216.803 C 468.755 216.404 468.584 216.234 468.3 216.234 C 468.186 216.234 468.014 216.234 467.844 216.347 C 465.796 217.143 465.287 217.257 464.204 217.257 C 462.499 217.257 462.158 216.631 462.158 213.73 L 462.158 200.25 L 467.617 200.25 C 468.243 200.25 468.47 200.136 468.584 199.454 L 469.325 196.211 C 469.325 196.098 469.381 196.041 469.381 195.984 L 469.381 195.757 C 469.381 195.302 469.209 195.188 468.47 195.188 L 462.158 195.188 L 462.158 187.396 C 462.158 186.713 461.986 186.428 461.589 186.428 C 461.532 186.428 461.474 186.486 461.304 186.486 L 461.132 186.486 L 456.013 187.224 C 455.217 187.339 455.105 187.452 455.105 188.192 L 455.105 195.188 L 451.35 195.188 Z " fill-rule="evenodd" fill="rgb(11,12,12)"/><path d=" M 487.231 216.177 C 485.922 217.655 484.5 218.338 483.022 218.338 C 481.031 218.338 479.493 216.687 479.493 214.526 C 479.493 211.455 481.713 210.09 486.662 210.09 L 487.231 210.09 L 487.231 216.177 Z  M 486.777 205.541 C 482.226 205.597 480.006 205.995 477.504 207.133 C 474.377 208.555 472.839 211.113 472.839 214.925 C 472.839 220.044 476.081 223.287 481.146 223.287 C 483.988 223.287 485.979 222.375 488.197 220.1 C 488.823 222.375 489.335 223.4 489.904 223.4 C 490.018 223.4 490.302 223.343 490.53 223.23 L 494.853 221.466 C 495.137 221.352 495.309 221.124 495.309 220.897 C 495.309 220.783 495.252 220.556 495.137 220.327 C 494.227 218.452 493.828 216.803 493.828 214.356 L 493.828 203.094 C 493.828 201.445 493.771 200.535 493.488 199.511 C 492.52 196.098 489.335 194.22 484.387 194.22 C 481.656 194.22 478.928 194.732 476.538 195.585 C 475.343 196.041 474.944 196.326 474.944 196.837 C 474.944 196.952 475.002 197.122 475.057 197.406 L 476.254 200.762 C 476.366 201.161 476.538 201.273 476.822 201.273 C 476.935 201.273 477.22 201.216 477.392 201.161 C 479.951 200.136 481.883 199.681 483.534 199.681 C 486.378 199.681 487.231 200.647 487.231 203.833 L 487.231 205.541 L 486.777 205.541 Z " fill-rule="evenodd" fill="rgb(11,12,12)"/><path d=" M 505.971 193.993 L 505.686 193.993 C 505.571 194.05 505.516 194.05 505.459 194.107 L 500.566 195.927 C 500.225 196.041 500.057 196.211 500.057 196.438 C 500.057 196.553 500.113 196.724 500.225 196.952 C 501.021 198.601 501.42 200.592 501.42 202.98 L 501.42 221.522 C 501.42 222.375 501.534 222.489 502.331 222.489 L 507.448 222.489 C 508.303 222.489 508.415 222.375 508.415 221.522 L 508.415 202.184 C 510.292 200.535 511.602 199.91 513.251 199.91 C 515.469 199.91 516.436 201.273 516.436 204.516 L 516.436 221.522 C 516.436 222.375 516.494 222.489 517.347 222.489 L 522.466 222.489 C 523.318 222.489 523.434 222.375 523.434 221.522 L 523.434 202.98 C 523.434 196.952 521.214 194.22 516.267 194.22 C 513.138 194.22 510.748 195.245 507.961 197.748 C 507.335 195.358 506.652 193.993 505.971 193.993 Z " fill-rule="evenodd" fill="rgb(11,12,12)"/><g opacity="0.1"><path d=" M 375.937 69.747 C 375.937 58.87 382.494 51.083 392.514 47.498 L 368.916 16.849 C 362.105 24.992 358 35.473 358 46.914 C 358 66.225 369.682 82.804 386.368 90 C 379.122 85.52 375.937 78.103 375.937 69.747 Z " fill="rgb(11,12,12)"/></g><g opacity="0.1"><path d=" M 411.688 43.173 L 416 43.173 L 416 1.067 C 412.229 0.092 409.031 0 404.954 0 C 396.311 0 388.218 2.345 381.262 6.415 L 405.998 40.206 C 407.482 42.307 409.338 43.173 411.688 43.173 Z " fill="rgb(11,12,12)"/></g><g opacity="0.1"><path d=" M 406.987 81.612 L 415.997 81.612 L 415.997 56.027 L 406.616 56.027 C 401.915 56.027 392.514 58.128 392.514 69.252 C 392.514 77.41 398.947 81.612 406.987 81.612 Z " fill="rgb(11,12,12)"/></g><g opacity="0.1"><path d=" M 69.747 203.063 C 58.87 203.063 51.083 196.506 47.498 186.486 L 16.849 210.084 C 24.992 216.895 35.473 221 46.914 221 C 66.225 221 82.804 209.318 90 192.632 C 85.52 199.878 78.103 203.063 69.747 203.063 Z " fill="rgb(11,12,12)"/></g><g opacity="0.1"><path d=" M 43.173 167.312 L 43.173 163 L 1.067 163 C 0.092 166.771 0 169.969 0 174.046 C 0 182.689 2.345 190.782 6.415 197.738 L 40.206 173.002 C 42.307 171.518 43.173 169.662 43.173 167.312 Z " fill="rgb(11,12,12)"/></g><g opacity="0.1"><path d=" M 81.612 172.013 L 81.612 163.003 L 56.027 163.003 L 56.027 172.384 C 56.027 177.085 58.128 186.486 69.252 186.486 C 77.41 186.486 81.612 180.053 81.612 172.013 Z " fill="rgb(11,12,12)"/></g></g></svg>