<?xml version="1.0" standalone="no"?><!-- Generator: Gravit.io --><svg xmlns="http://www.w3.org/2000/svg" xmlns:xlink="http://www.w3.org/1999/xlink" style="isolation:isolate" viewBox="0 0 640 216" width="640" height="216"><defs><clipPath id="_clipPath_iz95ea4BghC9FpJjptjYK1kIEGf6zK0I"><rect width="640" height="216"/></clipPath></defs><g clip-path="url(#_clipPath_iz95ea4BghC9FpJjptjYK1kIEGf6zK0I)"><path d=" M 300.147 79.291 L 307.636 79.291 C 312.13 79.291 316.35 76.227 316.35 72.142 C 316.35 67.307 312.13 64.924 307.568 64.924 L 300.147 64.924 L 300.147 79.291 Z  M 300.147 108.84 L 290.682 108.84 L 290.682 56.415 L 307.568 56.415 C 317.303 56.415 325.814 61.589 325.814 72.142 C 325.814 79.291 321.117 84.33 315.057 86.507 L 329.56 108.84 L 318.937 108.84 L 305.661 87.802 L 300.147 87.802 L 300.147 108.84 Z  M 276.049 86.917 L 256.44 86.917 L 256.44 100.329 L 279.453 100.329 L 279.453 108.84 L 246.976 108.84 L 246.976 56.415 L 278.773 56.415 L 278.773 64.924 L 256.44 64.924 L 256.44 78.407 L 276.049 78.407 L 276.049 86.917 Z  M 234.728 108.84 L 225.263 108.84 L 225.263 86.917 L 206.064 86.917 L 206.064 108.84 L 196.599 108.84 L 196.599 56.415 L 206.064 56.415 L 206.064 78.407 L 225.263 78.407 L 225.263 56.415 L 234.728 56.415 L 234.728 108.84 Z  M 187.074 64.924 L 169.781 64.924 L 169.781 108.84 L 160.316 108.84 L 160.316 64.924 L 143.159 64.924 L 143.159 56.415 L 187.074 56.415 L 187.074 64.924 Z  M 95.504 82.559 C 95.504 92.227 102.994 101.011 112.867 101.011 C 122.603 101.011 130.093 92.227 130.093 82.559 C 130.093 72.958 122.603 64.244 112.867 64.244 C 102.994 64.244 95.504 72.958 95.504 82.559 Z  M 85.904 82.559 C 85.904 67.853 98.024 55.734 112.867 55.734 C 127.709 55.734 139.693 67.989 139.693 82.559 C 139.693 97.471 127.506 109.521 112.867 109.521 C 98.092 109.521 85.904 97.471 85.904 82.559 Z  M 50.709 79.291 L 58.198 79.291 C 62.692 79.291 66.913 76.227 66.913 72.142 C 66.913 67.307 62.692 64.924 58.131 64.924 L 50.709 64.924 L 50.709 79.291 Z  M 50.709 108.84 L 41.245 108.84 L 41.245 56.415 L 58.131 56.415 C 67.867 56.415 76.377 61.589 76.377 72.142 C 76.377 79.291 71.68 84.33 65.62 86.507 L 80.122 108.84 L 69.5 108.84 L 56.224 87.802 L 50.709 87.802 L 50.709 108.84 Z " fill="rgb(255,255,255)"/><path d=" M 552.389 84.011 C 552.389 68.623 563.758 57.048 579.419 57.048 C 585.002 57.048 591.129 58.478 597.461 62.768 L 592.968 69.78 C 588.134 66.581 583.095 65.559 579.419 65.559 C 569.138 65.559 561.989 73.73 561.989 84.011 C 561.989 94.018 569.342 102.326 579.419 102.326 C 582.55 102.326 586.636 101.372 589.768 99.603 L 589.768 91.637 L 580.168 91.637 L 580.168 83.126 L 598.755 83.126 L 598.755 103.891 C 593.24 107.84 586.568 110.836 579.419 110.836 C 563.486 110.836 552.389 98.786 552.389 84.011 Z  M 506.029 78.427 L 506.029 110.155 L 496.565 110.155 L 496.565 56.163 L 531.696 90.003 L 531.696 57.73 L 541.161 57.73 L 541.161 112.266 L 506.029 78.427 Z  M 484.313 57.73 L 484.313 110.155 L 474.849 110.155 L 474.849 57.73 L 484.313 57.73 Z  M 415.62 57.73 L 425.834 57.73 L 441.084 92.044 L 456.336 57.73 L 466.684 57.73 L 441.084 112.266 L 415.62 57.73 Z  M 407.453 57.73 L 407.453 110.155 L 397.989 110.155 L 397.989 57.73 L 407.453 57.73 Z  M 357.348 110.155 L 357.348 57.73 L 366.812 57.73 L 366.812 101.644 L 389.825 101.644 L 389.825 110.155 L 357.348 110.155 Z " fill="rgb(255,255,255)"/><path d=" M 0 0 L 640 0 L 640 168 L 0 168 L 0 0 Z  M 10 10.003 L 630 10.003 L 630 158.003 L 10 158.003 L 10 10.003 Z " fill-rule="evenodd" fill="rgb(255,255,255)"/><path d=" M 54.929 201.104 L 49.332 201.104 L 49.332 215.316 L 46.27 215.316 L 46.27 201.104 L 40.716 201.104 L 40.716 198.351 L 54.929 198.351 L 54.929 201.104 Z " fill="rgb(255,255,255)"/><path d=" M 70.482 206.438 L 72.905 206.438 C 74.36 206.438 75.726 205.446 75.726 204.124 C 75.726 202.56 74.36 201.788 72.883 201.788 L 70.482 201.788 L 70.482 206.438 Z  M 70.482 216 L 67.419 216 L 67.419 199.035 L 72.883 199.035 C 76.035 199.035 78.789 200.709 78.789 204.124 C 78.789 206.438 77.268 208.068 75.307 208.773 L 80 216 L 76.563 216 L 72.266 209.193 L 70.482 209.193 L 70.482 216 Z " fill="rgb(255,255,255)"/><path d=" M 98.687 208.706 L 102.807 208.706 L 100.736 204.035 L 98.687 208.706 Z  M 95.8 215.316 L 92.539 215.316 L 100.736 197.843 L 108.889 215.316 L 105.628 215.316 L 103.975 211.46 L 97.497 211.46 L 95.8 215.316 Z " fill="rgb(255,255,255)"/><path d=" M 124.686 205.049 L 124.686 215.316 L 121.623 215.316 L 121.623 197.843 L 132.992 208.795 L 132.992 198.351 L 136.056 198.351 L 136.056 216 L 124.686 205.049 Z " fill="rgb(255,255,255)"/><path d=" M 149.782 213.511 L 151.346 211.351 C 153.108 212.607 154.078 212.783 155.246 212.783 C 157.03 212.783 157.824 212.055 157.824 210.689 C 157.824 207.318 150.089 208.377 150.089 202.824 C 150.089 199.165 152.865 198.107 155.202 198.107 C 157.14 198.107 158.352 198.527 160.512 200.136 L 158.948 202.273 C 157.207 201.016 156.303 200.884 155.202 200.884 C 154.166 200.884 153.131 201.347 153.131 202.824 C 153.131 203.903 154.651 204.718 155.796 205.136 C 158.22 206.018 160.843 207.406 160.843 210.689 C 160.843 214.368 158.309 215.538 155.246 215.538 C 153.395 215.538 152.072 215.162 149.782 213.511 Z " fill="rgb(255,255,255)"/><path d=" M 183.802 208.222 L 177.632 208.222 L 177.632 215.316 L 174.569 215.316 L 174.569 198.351 L 184.683 198.351 L 184.683 201.104 L 177.632 201.104 L 177.632 205.467 L 183.802 205.467 L 183.802 208.222 Z " fill="rgb(255,255,255)"/><path d=" M 199.93 206.811 C 199.93 209.94 202.354 212.783 205.548 212.783 C 208.699 212.783 211.124 209.94 211.124 206.811 C 211.124 203.704 208.699 200.884 205.548 200.884 C 202.354 200.884 199.93 203.704 199.93 206.811 Z  M 196.824 206.811 C 196.824 202.052 200.745 198.129 205.548 198.129 C 210.353 198.129 214.23 202.096 214.23 206.811 C 214.23 211.636 210.287 215.538 205.548 215.538 C 200.767 215.538 196.824 211.636 196.824 206.811 Z " fill="rgb(255,255,255)"/><path d=" M 230.909 205.754 L 233.332 205.754 C 234.786 205.754 236.152 204.762 236.152 203.44 C 236.152 201.876 234.786 201.104 233.31 201.104 L 230.909 201.104 L 230.909 205.754 Z  M 230.909 215.316 L 227.846 215.316 L 227.846 198.351 L 233.31 198.351 C 236.462 198.351 239.215 200.025 239.215 203.44 C 239.215 205.754 237.694 207.384 235.734 208.089 L 240.427 215.316 L 236.989 215.316 L 232.693 208.509 L 230.909 208.509 L 230.909 215.316 Z " fill="rgb(255,255,255)"/><path d=" M 265.722 204.939 L 261.205 209.544 L 256.666 204.939 L 256.666 215.316 L 253.604 215.316 L 253.604 197.843 L 261.227 205.313 L 268.785 197.843 L 268.785 215.316 L 265.722 215.316 L 265.722 204.939 Z " fill="rgb(255,255,255)"/><path d=" M 285.904 198.351 L 285.904 215.316 L 282.841 215.316 L 282.841 198.351 L 285.904 198.351 Z " fill="rgb(255,255,255)"/><path d=" M 303.023 205.049 L 303.023 215.316 L 299.96 215.316 L 299.96 197.843 L 311.329 208.795 L 311.329 198.351 L 314.393 198.351 L 314.393 216 L 303.023 205.049 Z " fill="rgb(255,255,255)"/><path d=" M 328.12 206.856 C 328.12 201.876 331.799 198.129 336.867 198.129 C 338.675 198.129 340.656 198.593 342.706 199.981 L 341.252 202.251 C 339.687 201.215 338.058 200.884 336.867 200.884 C 333.54 200.884 331.226 203.529 331.226 206.856 C 331.226 210.094 333.606 212.783 336.867 212.783 C 337.88 212.783 339.202 212.475 340.217 211.902 L 340.217 209.323 L 337.11 209.323 L 337.11 206.569 L 343.124 206.569 L 343.124 213.29 C 341.34 214.567 339.181 215.538 336.867 215.538 C 331.711 215.538 328.12 211.636 328.12 206.856 Z " fill="rgb(255,255,255)"/><path d=" M 376.063 205.754 L 378.486 205.754 C 379.941 205.754 381.307 204.762 381.307 203.44 C 381.307 201.876 379.941 201.104 378.464 201.104 L 376.063 201.104 L 376.063 205.754 Z  M 376.063 215.316 L 372.999 215.316 L 372.999 198.351 L 378.464 198.351 C 381.615 198.351 384.37 200.025 384.37 203.44 C 384.37 205.754 382.849 207.384 380.889 208.089 L 385.581 215.316 L 382.144 215.316 L 377.848 208.509 L 376.063 208.509 L 376.063 215.316 Z " fill="rgb(255,255,255)"/><path d=" M 400.652 206.811 C 400.652 209.94 403.077 212.783 406.271 212.783 C 409.422 212.783 411.846 209.94 411.846 206.811 C 411.846 203.704 409.422 200.884 406.271 200.884 C 403.077 200.884 400.652 203.704 400.652 206.811 Z  M 397.546 206.811 C 397.546 202.052 401.468 198.129 406.271 198.129 C 411.076 198.129 414.952 202.096 414.952 206.811 C 414.952 211.636 411.009 215.538 406.271 215.538 C 401.489 215.538 397.546 211.636 397.546 206.811 Z " fill="rgb(255,255,255)"/><path d=" M 440.379 201.104 L 434.782 201.104 L 434.782 215.316 L 431.72 215.316 L 431.72 201.104 L 426.167 201.104 L 426.167 198.351 L 440.379 198.351 L 440.379 201.104 Z " fill="rgb(255,255,255)"/><path d=" M 465.894 215.316 L 462.831 215.316 L 462.831 208.222 L 456.617 208.222 L 456.617 215.316 L 453.554 215.316 L 453.554 198.351 L 456.617 198.351 L 456.617 205.467 L 462.831 205.467 L 462.831 198.351 L 465.894 198.351 L 465.894 215.316 Z " fill="rgb(255,255,255)"/><path d=" M 489.36 208.222 L 483.014 208.222 L 483.014 212.563 L 490.462 212.563 L 490.462 215.316 L 479.951 215.316 L 479.951 198.351 L 490.241 198.351 L 490.241 201.104 L 483.014 201.104 L 483.014 205.467 L 489.36 205.467 L 489.36 208.222 Z " fill="rgb(255,255,255)"/><path d=" M 507.25 205.754 L 509.673 205.754 C 511.128 205.754 512.494 204.762 512.494 203.44 C 512.494 201.876 511.128 201.104 509.651 201.104 L 507.25 201.104 L 507.25 205.754 Z  M 507.25 215.316 L 504.187 215.316 L 504.187 198.351 L 509.651 198.351 C 512.803 198.351 515.557 200.025 515.557 203.44 C 515.557 205.754 514.036 207.384 512.075 208.089 L 516.769 215.316 L 513.331 215.316 L 509.034 208.509 L 507.25 208.509 L 507.25 215.316 Z " fill="rgb(255,255,255)"/><path d=" M 542.285 215.316 L 539.221 215.316 L 539.221 208.222 L 533.008 208.222 L 533.008 215.316 L 529.945 215.316 L 529.945 198.351 L 533.008 198.351 L 533.008 205.467 L 539.221 205.467 L 539.221 198.351 L 542.285 198.351 L 542.285 215.316 Z " fill="rgb(255,255,255)"/><path d=" M 561.166 208.706 L 565.285 208.706 L 563.214 204.035 L 561.166 208.706 Z  M 558.279 215.316 L 555.018 215.316 L 563.214 197.843 L 571.368 215.316 L 568.106 215.316 L 566.454 211.46 L 559.976 211.46 L 558.279 215.316 Z " fill="rgb(255,255,255)"/><path d=" M 596.22 204.939 L 591.703 209.544 L 587.165 204.939 L 587.165 215.316 L 584.102 215.316 L 584.102 197.843 L 591.725 205.313 L 599.284 197.843 L 599.284 215.316 L 596.22 215.316 L 596.22 204.939 Z " fill="rgb(255,255,255)"/></g></svg>