<?xml version="1.0" standalone="no"?><!-- Generator: Gravit.io --><svg xmlns="http://www.w3.org/2000/svg" xmlns:xlink="http://www.w3.org/1999/xlink" style="isolation:isolate" viewBox="0 0 832 168" width="832" height="168"><defs><clipPath id="_clipPath_lJ8EOxpIULR2mAmZQtO5xWSEcRCsjUsL"><rect width="832" height="168"/></clipPath></defs><g clip-path="url(#_clipPath_lJ8EOxpIULR2mAmZQtO5xWSEcRCsjUsL)"><path d=" M 435.721 131.251 L 435.721 131.251 Q 434.321 132.401 431.272 133.55 L 431.272 133.55 L 431.272 133.55 Q 428.223 134.7 424.623 134.7 L 424.623 134.7 L 424.623 134.7 Q 418.874 134.7 414.625 132.201 L 414.625 132.201 L 414.625 132.201 Q 410.376 129.701 408.127 125.477 L 408.127 125.477 L 408.127 125.477 Q 405.877 121.253 405.877 116.204 L 405.877 116.204 L 405.877 116.204 Q 405.877 110.655 408.127 106.306 L 408.127 106.306 L 408.127 106.306 Q 410.376 101.957 414.425 99.532 L 414.425 99.532 L 414.425 99.532 Q 418.475 97.108 423.773 97.108 L 423.773 97.108 L 423.773 97.108 Q 427.123 97.108 429.972 98.007 L 429.972 98.007 L 429.972 98.007 Q 432.822 98.907 434.971 100.257 L 434.971 100.257 L 432.122 107.106 L 432.122 107.106 Q 428.173 104.106 424.023 104.106 L 424.023 104.106 L 424.023 104.106 Q 421.224 104.106 418.774 105.656 L 418.774 105.656 L 418.774 105.656 Q 416.325 107.206 414.875 109.88 L 414.875 109.88 L 414.875 109.88 Q 413.425 112.555 413.425 115.804 L 413.425 115.804 L 413.425 115.804 Q 413.425 119.353 414.775 122.028 L 414.775 122.028 L 414.775 122.028 Q 416.125 124.702 418.624 126.202 L 418.624 126.202 L 418.624 126.202 Q 421.124 127.702 424.473 127.702 L 424.473 127.702 L 424.473 127.702 Q 427.173 127.702 429.322 126.827 L 429.322 126.827 L 429.322 126.827 Q 431.472 125.952 432.722 124.752 L 432.722 124.752 L 435.721 131.251 Z  M 442.97 97.508 L 468.065 97.508 L 468.065 104.506 L 450.218 104.506 L 450.218 112.355 L 466.015 112.355 L 466.015 119.353 L 450.218 119.353 L 450.218 127.302 L 468.765 127.302 L 468.765 134.3 L 442.97 134.3 L 442.97 97.508 Z  M 502.108 97.508 L 509.407 97.508 L 509.407 135.8 L 509.207 135.8 L 483.462 112.555 L 483.612 134.3 L 476.263 134.3 L 476.263 96.058 L 476.563 96.058 L 502.258 119.653 L 502.108 97.508 Z  M 516.405 97.508 L 541.201 97.508 L 541.201 104.506 L 532.252 104.506 L 532.252 134.3 L 525.004 134.3 L 525.004 104.506 L 516.405 104.506 L 516.405 97.508 Z  M 576.494 134.3 L 568.045 134.3 L 560.297 122.603 L 555.448 122.603 L 555.448 134.3 L 548.199 134.3 L 548.199 97.508 L 559.347 97.508 L 559.347 97.508 Q 566.196 97.508 569.97 100.832 L 569.97 100.832 L 569.97 100.832 Q 573.744 104.156 573.744 109.905 L 573.744 109.905 L 573.744 109.905 Q 573.744 113.304 572.319 116.279 L 572.319 116.279 L 572.319 116.279 Q 570.895 119.253 567.945 120.953 L 567.945 120.953 L 576.494 134.3 Z  M 555.448 104.506 L 555.448 115.604 L 560.597 115.604 L 560.597 115.604 Q 563.546 115.604 564.896 113.879 L 564.896 113.879 L 564.896 113.879 Q 566.246 112.155 566.246 110.155 L 566.246 110.155 L 566.246 110.155 Q 566.246 108.155 565.096 106.331 L 565.096 106.331 L 565.096 106.331 Q 563.946 104.506 560.647 104.506 L 560.647 104.506 L 555.448 104.506 Z  M 582.493 97.508 L 607.588 97.508 L 607.588 104.506 L 589.741 104.506 L 589.741 112.355 L 605.538 112.355 L 605.538 119.353 L 589.741 119.353 L 589.741 127.302 L 608.287 127.302 L 608.287 134.3 L 582.493 134.3 L 582.493 97.508 Z  M 223.713 97.508 L 248.508 97.508 L 248.508 104.506 L 239.559 104.506 L 239.559 134.3 L 232.311 134.3 L 232.311 104.506 L 223.713 104.506 L 223.713 97.508 Z  M 253.257 115.954 L 253.257 115.954 Q 253.257 110.955 255.781 106.606 L 255.781 106.606 L 255.781 106.606 Q 258.306 102.257 262.63 99.682 L 262.63 99.682 L 262.63 99.682 Q 266.954 97.108 272.003 97.108 L 272.003 97.108 L 272.003 97.108 Q 277.052 97.108 281.376 99.682 L 281.376 99.682 L 281.376 99.682 Q 285.7 102.257 288.275 106.606 L 288.275 106.606 L 288.275 106.606 Q 290.849 110.955 290.849 115.954 L 290.849 115.954 L 290.849 115.954 Q 290.849 121.053 288.275 125.352 L 288.275 125.352 L 288.275 125.352 Q 285.7 129.651 281.376 132.176 L 281.376 132.176 L 281.376 132.176 Q 277.052 134.7 272.003 134.7 L 272.003 134.7 L 272.003 134.7 Q 266.904 134.7 262.605 132.176 L 262.605 132.176 L 262.605 132.176 Q 258.306 129.651 255.781 125.352 L 255.781 125.352 L 255.781 125.352 Q 253.257 121.053 253.257 115.954 L 253.257 115.954 Z  M 260.755 115.954 L 260.755 115.954 Q 260.755 119.153 262.28 121.853 L 262.28 121.853 L 262.28 121.853 Q 263.805 124.552 266.429 126.127 L 266.429 126.127 L 266.429 126.127 Q 269.054 127.702 272.253 127.702 L 272.253 127.702 L 272.253 127.702 Q 275.352 127.702 277.902 126.127 L 277.902 126.127 L 277.902 126.127 Q 280.451 124.552 281.901 121.878 L 281.901 121.878 L 281.901 121.878 Q 283.351 119.203 283.351 115.954 L 283.351 115.954 L 283.351 115.954 Q 283.351 112.655 281.851 109.955 L 281.851 109.955 L 281.851 109.955 Q 280.351 107.256 277.777 105.681 L 277.777 105.681 L 277.777 105.681 Q 275.203 104.106 272.053 104.106 L 272.053 104.106 L 272.053 104.106 Q 268.904 104.106 266.329 105.681 L 266.329 105.681 L 266.329 105.681 Q 263.755 107.256 262.255 109.955 L 262.255 109.955 L 262.255 109.955 Q 260.755 112.655 260.755 115.954 L 260.755 115.954 Z  M 342.889 97.757 L 328.692 135.9 L 319.944 114.104 L 309.746 136 L 294.949 97.757 L 303.447 97.757 L 310.696 119.053 L 316.294 105.006 L 313.395 97.757 L 320.594 97.757 L 328.842 118.203 L 335.091 97.757 L 342.889 97.757 Z  M 375.083 97.508 L 382.382 97.508 L 382.382 135.8 L 382.182 135.8 L 356.437 112.555 L 356.587 134.3 L 349.238 134.3 L 349.238 96.058 L 349.538 96.058 L 375.233 119.653 L 375.083 97.508 Z " fill-rule="evenodd" fill="rgb(65,51,88)"/><path d=" M 500.958 70.293 L 492.51 70.293 L 484.762 58.595 L 479.913 58.595 L 479.913 70.293 L 472.664 70.293 L 472.664 33.5 L 483.812 33.5 L 483.812 33.5 Q 490.66 33.5 494.435 36.824 L 494.435 36.824 L 494.435 36.824 Q 498.209 40.148 498.209 45.897 L 498.209 45.897 L 498.209 45.897 Q 498.209 49.297 496.784 52.271 L 496.784 52.271 L 496.784 52.271 Q 495.36 55.245 492.41 56.945 L 492.41 56.945 L 500.958 70.293 Z  M 479.913 40.498 L 479.913 51.596 L 485.062 51.596 L 485.062 51.596 Q 488.011 51.596 489.361 49.872 L 489.361 49.872 L 489.361 49.872 Q 490.71 48.147 490.71 46.147 L 490.71 46.147 L 490.71 46.147 Q 490.71 44.148 489.561 42.323 L 489.561 42.323 L 489.561 42.323 Q 488.411 40.498 485.112 40.498 L 485.112 40.498 L 479.913 40.498 Z  M 504.708 51.946 L 504.708 51.946 Q 504.708 46.947 507.232 42.598 L 507.232 42.598 L 507.232 42.598 Q 509.757 38.249 514.081 35.674 L 514.081 35.674 L 514.081 35.674 Q 518.405 33.1 523.454 33.1 L 523.454 33.1 L 523.454 33.1 Q 528.503 33.1 532.827 35.674 L 532.827 35.674 L 532.827 35.674 Q 537.151 38.249 539.726 42.598 L 539.726 42.598 L 539.726 42.598 Q 542.3 46.947 542.3 51.946 L 542.3 51.946 L 542.3 51.946 Q 542.3 57.045 539.726 61.344 L 539.726 61.344 L 539.726 61.344 Q 537.151 65.643 532.827 68.168 L 532.827 68.168 L 532.827 68.168 Q 528.503 70.692 523.454 70.692 L 523.454 70.692 L 523.454 70.692 Q 518.355 70.692 514.056 68.168 L 514.056 68.168 L 514.056 68.168 Q 509.757 65.643 507.232 61.344 L 507.232 61.344 L 507.232 61.344 Q 504.708 57.045 504.708 51.946 L 504.708 51.946 Z  M 512.206 51.946 L 512.206 51.946 Q 512.206 55.145 513.731 57.845 L 513.731 57.845 L 513.731 57.845 Q 515.256 60.544 517.88 62.119 L 517.88 62.119 L 517.88 62.119 Q 520.505 63.694 523.704 63.694 L 523.704 63.694 L 523.704 63.694 Q 526.803 63.694 529.353 62.119 L 529.353 62.119 L 529.353 62.119 Q 531.902 60.544 533.352 57.87 L 533.352 57.87 L 533.352 57.87 Q 534.802 55.195 534.802 51.946 L 534.802 51.946 L 534.802 51.946 Q 534.802 48.647 533.302 45.947 L 533.302 45.947 L 533.302 45.947 Q 531.802 43.248 529.228 41.673 L 529.228 41.673 L 529.228 41.673 Q 526.653 40.098 523.504 40.098 L 523.504 40.098 L 523.504 40.098 Q 520.355 40.098 517.78 41.673 L 517.78 41.673 L 517.78 41.673 Q 515.206 43.248 513.706 45.947 L 513.706 45.947 L 513.706 45.947 Q 512.206 48.647 512.206 51.946 L 512.206 51.946 Z  M 547.049 33.5 L 571.845 33.5 L 571.845 40.498 L 562.896 40.498 L 562.896 70.293 L 555.648 70.293 L 555.648 40.498 L 547.049 40.498 L 547.049 33.5 Z  M 609.787 33.5 L 609.787 70.293 L 602.539 70.293 L 602.539 55.345 L 586.092 55.345 L 586.092 70.293 L 578.843 70.293 L 578.843 33.5 L 586.092 33.5 L 586.092 48.347 L 602.539 48.347 L 602.539 33.5 L 609.787 33.5 Z  M 619.285 33.5 L 644.38 33.5 L 644.38 40.498 L 626.534 40.498 L 626.534 48.347 L 642.331 48.347 L 642.331 55.345 L 626.534 55.345 L 626.534 63.294 L 645.08 63.294 L 645.08 70.293 L 619.285 70.293 L 619.285 33.5 Z  M 680.873 70.293 L 672.425 70.293 L 664.676 58.595 L 659.827 58.595 L 659.827 70.293 L 652.579 70.293 L 652.579 33.5 L 663.727 33.5 L 663.727 33.5 Q 670.575 33.5 674.35 36.824 L 674.35 36.824 L 674.35 36.824 Q 678.124 40.148 678.124 45.897 L 678.124 45.897 L 678.124 45.897 Q 678.124 49.297 676.699 52.271 L 676.699 52.271 L 676.699 52.271 Q 675.274 55.245 672.325 56.945 L 672.325 56.945 L 680.873 70.293 Z  M 659.827 40.498 L 659.827 51.596 L 664.976 51.596 L 664.976 51.596 Q 667.926 51.596 669.276 49.872 L 669.276 49.872 L 669.276 49.872 Q 670.625 48.147 670.625 46.147 L 670.625 46.147 L 670.625 46.147 Q 670.625 44.148 669.476 42.323 L 669.476 42.323 L 669.476 42.323 Q 668.326 40.498 665.026 40.498 L 665.026 40.498 L 659.827 40.498 Z  M 717.816 33.5 L 717.816 70.293 L 710.567 70.293 L 710.567 55.345 L 694.121 55.345 L 694.121 70.293 L 686.872 70.293 L 686.872 33.5 L 694.121 33.5 L 694.121 48.347 L 710.567 48.347 L 710.567 33.5 L 717.816 33.5 Z  M 748.36 70.293 L 745.511 63.094 L 733.313 63.094 L 730.314 70.293 L 723.165 70.293 L 739.762 32.05 L 740.162 32.05 L 756.758 70.293 L 748.36 70.293 Z  M 735.863 56.995 L 743.111 56.995 L 739.562 48.047 L 735.863 56.995 Z  M 799.9 32 L 800 32 L 800 70.293 L 792.751 70.293 L 792.751 52.746 L 780.754 69.793 L 780.654 69.793 L 769.106 53.846 L 769.106 70.293 L 762.107 70.293 L 762.107 32 L 762.157 32 L 780.804 58.445 L 799.9 32 Z  M 32 33.5 L 56.795 33.5 L 56.795 40.498 L 47.847 40.498 L 47.847 70.293 L 40.598 70.293 L 40.598 40.498 L 32 40.498 L 32 33.5 Z  M 92.088 70.293 L 83.64 70.293 L 75.891 58.595 L 71.042 58.595 L 71.042 70.293 L 63.794 70.293 L 63.794 33.5 L 74.942 33.5 L 74.942 33.5 Q 81.79 33.5 85.565 36.824 L 85.565 36.824 L 85.565 36.824 Q 89.339 40.148 89.339 45.897 L 89.339 45.897 L 89.339 45.897 Q 89.339 49.297 87.914 52.271 L 87.914 52.271 L 87.914 52.271 Q 86.489 55.245 83.54 56.945 L 83.54 56.945 L 92.088 70.293 Z  M 71.042 40.498 L 71.042 51.596 L 76.191 51.596 L 76.191 51.596 Q 79.141 51.596 80.491 49.872 L 80.491 49.872 L 80.491 49.872 Q 81.84 48.147 81.84 46.147 L 81.84 46.147 L 81.84 46.147 Q 81.84 44.148 80.69 42.323 L 80.69 42.323 L 80.69 42.323 Q 79.541 40.498 76.241 40.498 L 76.241 40.498 L 71.042 40.498 Z  M 119.133 70.293 L 116.284 63.094 L 104.086 63.094 L 101.087 70.293 L 93.938 70.293 L 110.535 32.05 L 110.935 32.05 L 127.531 70.293 L 119.133 70.293 Z  M 106.635 56.995 L 113.884 56.995 L 110.335 48.047 L 106.635 56.995 Z  M 158.725 33.5 L 166.024 33.5 L 166.024 71.792 L 165.824 71.792 L 140.079 48.547 L 140.229 70.293 L 132.88 70.293 L 132.88 32.05 L 133.18 32.05 L 158.875 55.645 L 158.725 33.5 Z  M 195.168 42.398 L 195.168 42.398 Q 190.369 39.748 186.82 39.748 L 186.82 39.748 L 186.82 39.748 Q 184.42 39.748 183.095 40.698 L 183.095 40.698 L 183.095 40.698 Q 181.771 41.648 181.771 43.548 L 181.771 43.548 L 181.771 43.548 Q 181.771 45.297 183.695 46.622 L 183.695 46.622 L 183.695 46.622 Q 185.62 47.947 188.819 49.147 L 188.819 49.147 L 188.819 49.147 Q 191.419 50.096 193.269 51.321 L 193.269 51.321 L 193.269 51.321 Q 195.118 52.546 196.343 54.696 L 196.343 54.696 L 196.343 54.696 Q 197.568 56.845 197.568 60.145 L 197.568 60.145 L 197.568 60.145 Q 197.568 62.994 196.093 65.418 L 196.093 65.418 L 196.093 65.418 Q 194.618 67.843 191.769 69.268 L 191.769 69.268 L 191.769 69.268 Q 188.919 70.692 184.97 70.692 L 184.97 70.692 L 184.97 70.692 Q 181.671 70.692 178.421 69.718 L 178.421 69.718 L 178.421 69.718 Q 175.172 68.743 172.373 66.743 L 172.373 66.743 L 175.572 61.094 L 175.572 61.094 Q 177.472 62.494 179.921 63.394 L 179.921 63.394 L 179.921 63.394 Q 182.371 64.294 184.32 64.294 L 184.32 64.294 L 184.32 64.294 Q 186.62 64.294 188.319 63.319 L 188.319 63.319 L 188.319 63.319 Q 190.019 62.344 190.019 60.145 L 190.019 60.145 L 190.019 60.145 Q 190.019 57.295 184.67 55.195 L 184.67 55.195 L 184.67 55.195 Q 181.521 53.946 179.421 52.796 L 179.421 52.796 L 179.421 52.796 Q 177.322 51.646 175.797 49.497 L 175.797 49.497 L 175.797 49.497 Q 174.272 47.347 174.272 44.098 L 174.272 44.098 L 174.272 44.098 Q 174.272 39.349 177.397 36.449 L 177.397 36.449 L 177.397 36.449 Q 180.521 33.55 185.72 33.3 L 185.72 33.3 L 185.72 33.3 Q 189.819 33.3 192.569 34.225 L 192.569 34.225 L 192.569 34.225 Q 195.318 35.149 197.918 36.849 L 197.918 36.849 L 195.168 42.398 Z  M 204.666 33.5 L 227.662 33.5 L 227.662 40.498 L 211.915 40.498 L 211.915 48.847 L 225.562 48.847 L 225.562 55.845 L 211.915 55.845 L 211.915 70.293 L 204.666 70.293 L 204.666 33.5 Z  M 232.411 51.946 L 232.411 51.946 Q 232.411 46.947 234.935 42.598 L 234.935 42.598 L 234.935 42.598 Q 237.46 38.249 241.784 35.674 L 241.784 35.674 L 241.784 35.674 Q 246.108 33.1 251.157 33.1 L 251.157 33.1 L 251.157 33.1 Q 256.206 33.1 260.53 35.674 L 260.53 35.674 L 260.53 35.674 Q 264.855 38.249 267.429 42.598 L 267.429 42.598 L 267.429 42.598 Q 270.004 46.947 270.004 51.946 L 270.004 51.946 L 270.004 51.946 Q 270.004 57.045 267.429 61.344 L 267.429 61.344 L 267.429 61.344 Q 264.855 65.643 260.53 68.168 L 260.53 68.168 L 260.53 68.168 Q 256.206 70.692 251.157 70.692 L 251.157 70.692 L 251.157 70.692 Q 246.058 70.692 241.759 68.168 L 241.759 68.168 L 241.759 68.168 Q 237.46 65.643 234.935 61.344 L 234.935 61.344 L 234.935 61.344 Q 232.411 57.045 232.411 51.946 L 232.411 51.946 Z  M 239.909 51.946 L 239.909 51.946 Q 239.909 55.145 241.434 57.845 L 241.434 57.845 L 241.434 57.845 Q 242.959 60.544 245.583 62.119 L 245.583 62.119 L 245.583 62.119 Q 248.208 63.694 251.407 63.694 L 251.407 63.694 L 251.407 63.694 Q 254.507 63.694 257.056 62.119 L 257.056 62.119 L 257.056 62.119 Q 259.606 60.544 261.055 57.87 L 261.055 57.87 L 261.055 57.87 Q 262.505 55.195 262.505 51.946 L 262.505 51.946 L 262.505 51.946 Q 262.505 48.647 261.005 45.947 L 261.005 45.947 L 261.005 45.947 Q 259.506 43.248 256.931 41.673 L 256.931 41.673 L 256.931 41.673 Q 254.357 40.098 251.207 40.098 L 251.207 40.098 L 251.207 40.098 Q 248.058 40.098 245.483 41.673 L 245.483 41.673 L 245.483 41.673 Q 242.909 43.248 241.409 45.947 L 241.409 45.947 L 241.409 45.947 Q 239.909 48.647 239.909 51.946 L 239.909 51.946 Z  M 305.547 70.293 L 297.098 70.293 L 289.35 58.595 L 284.501 58.595 L 284.501 70.293 L 277.252 70.293 L 277.252 33.5 L 288.4 33.5 L 288.4 33.5 Q 295.249 33.5 299.023 36.824 L 299.023 36.824 L 299.023 36.824 Q 302.797 40.148 302.797 45.897 L 302.797 45.897 L 302.797 45.897 Q 302.797 49.297 301.372 52.271 L 301.372 52.271 L 301.372 52.271 Q 299.948 55.245 296.998 56.945 L 296.998 56.945 L 305.547 70.293 Z  M 284.501 40.498 L 284.501 51.596 L 289.65 51.596 L 289.65 51.596 Q 292.599 51.596 293.949 49.872 L 293.949 49.872 L 293.949 49.872 Q 295.299 48.147 295.299 46.147 L 295.299 46.147 L 295.299 46.147 Q 295.299 44.148 294.149 42.323 L 294.149 42.323 L 294.149 42.323 Q 292.999 40.498 289.7 40.498 L 289.7 40.498 L 284.501 40.498 Z  M 349.338 32 L 349.438 32 L 349.438 70.293 L 342.189 70.293 L 342.189 52.746 L 330.192 69.793 L 330.092 69.793 L 318.544 53.846 L 318.544 70.293 L 311.545 70.293 L 311.545 32 L 311.595 32 L 330.242 58.445 L 349.338 32 Z  M 358.936 33.5 L 366.185 33.5 L 366.185 70.293 L 358.936 70.293 L 358.936 33.5 Z  M 401.528 33.5 L 408.826 33.5 L 408.826 71.792 L 408.626 71.792 L 382.881 48.547 L 383.031 70.293 L 375.683 70.293 L 375.683 32.05 L 375.983 32.05 L 401.678 55.645 L 401.528 33.5 Z  M 448.169 66.593 L 448.169 66.593 Q 447.319 67.493 445.144 68.468 L 445.144 68.468 L 445.144 68.468 Q 442.97 69.443 440.345 70.068 L 440.345 70.068 L 440.345 70.068 Q 437.721 70.692 435.571 70.692 L 435.571 70.692 L 435.571 70.692 Q 429.722 70.692 425.298 68.418 L 425.298 68.418 L 425.298 68.418 Q 420.874 66.143 418.475 62.119 L 418.475 62.119 L 418.475 62.119 Q 416.075 58.095 416.075 52.946 L 416.075 52.946 L 416.075 52.946 Q 416.075 46.497 418.624 42.023 L 418.624 42.023 L 418.624 42.023 Q 421.174 37.549 425.473 35.324 L 425.473 35.324 L 425.473 35.324 Q 429.772 33.1 434.971 33.1 L 434.971 33.1 L 434.971 33.1 Q 438.321 33.1 441.27 33.85 L 441.27 33.85 L 441.27 33.85 Q 444.219 34.599 446.469 35.799 L 446.469 35.799 L 444.12 42.548 L 444.12 42.548 Q 442.67 41.748 440.145 41.073 L 440.145 41.073 L 440.145 41.073 Q 437.621 40.398 435.921 40.398 L 435.921 40.398 L 435.921 40.398 Q 429.922 40.398 426.748 43.398 L 426.748 43.398 L 426.748 43.398 Q 423.574 46.397 423.574 52.296 L 423.574 52.296 L 423.574 52.296 Q 423.574 55.695 425.123 58.22 L 425.123 58.22 L 425.123 58.22 Q 426.673 60.744 429.447 62.094 L 429.447 62.094 L 429.447 62.094 Q 432.222 63.444 435.771 63.444 L 435.771 63.444 L 435.771 63.444 Q 439.17 63.444 440.82 62.494 L 440.82 62.494 L 440.82 58.045 L 434.471 58.045 L 434.471 51.046 L 448.169 51.046 L 448.169 66.593 Z " fill-rule="evenodd" fill="rgb(65,51,88)"/><path d=" M 0 0 L 832 0 L 832 168 L 0 168 L 0 0 Z  M 10 10 L 822 10 L 822 158 L 10 158 L 10 10 Z " fill-rule="evenodd" fill="rgb(65,51,88)"/></g></svg>