<?xml version="1.0" standalone="no"?><!-- Generator: Gravit.io --><svg xmlns="http://www.w3.org/2000/svg" xmlns:xlink="http://www.w3.org/1999/xlink" style="isolation:isolate" viewBox="0 0 640 216" width="640" height="216"><defs><clipPath id="_clipPath_oZHFSDNh46pHSw7tFVWMam9WzyZ1TyNG"><rect width="640" height="216"/></clipPath></defs><g clip-path="url(#_clipPath_oZHFSDNh46pHSw7tFVWMam9WzyZ1TyNG)"><path d=" M 348.498 105.525 L 348.498 105.525 Q 346.221 107.161 342.201 108.656 L 342.201 108.656 L 342.201 108.656 Q 338.18 110.15 333.413 110.15 L 333.413 110.15 L 333.413 110.15 Q 325.372 110.15 319.36 106.628 L 319.36 106.628 L 319.36 106.628 Q 313.347 103.105 310.109 97.164 L 310.109 97.164 L 310.109 97.164 Q 306.872 91.222 306.872 84.107 L 306.872 84.107 L 306.872 84.107 Q 306.872 76.351 310.109 70.231 L 310.109 70.231 L 310.109 70.231 Q 313.347 64.112 319.146 60.661 L 319.146 60.661 L 319.146 60.661 Q 324.945 57.21 332.346 57.21 L 332.346 57.21 L 332.346 57.21 Q 336.9 57.21 340.778 58.419 L 340.778 58.419 L 340.778 58.419 Q 344.656 59.629 347.644 61.479 L 347.644 61.479 L 344.371 69.235 L 344.371 69.235 Q 338.607 65.179 332.63 65.179 L 332.63 65.179 L 332.63 65.179 Q 328.076 65.179 324.127 67.634 L 324.127 67.634 L 324.127 67.634 Q 320.178 70.089 317.83 74.323 L 317.83 74.323 L 317.83 74.323 Q 315.482 78.557 315.482 83.609 L 315.482 83.609 L 315.482 83.609 Q 315.482 88.945 317.652 93.179 L 317.652 93.179 L 317.652 93.179 Q 319.822 97.413 323.842 99.797 L 323.842 99.797 L 323.842 99.797 Q 327.863 102.18 333.128 102.18 L 333.128 102.18 L 333.128 102.18 Q 336.9 102.18 339.924 101.042 L 339.924 101.042 L 339.924 101.042 Q 342.948 99.903 345.011 98.125 L 345.011 98.125 L 348.498 105.525 Z  M 359.527 57.779 L 393.896 57.779 L 393.896 65.748 L 367.853 65.748 L 367.853 79.553 L 391.05 79.553 L 391.05 87.522 L 367.853 87.522 L 367.853 101.611 L 394.892 101.611 L 394.892 109.581 L 359.527 109.581 L 359.527 57.779 Z  M 443.848 57.779 L 452.102 57.779 L 452.102 111.431 L 451.888 111.431 L 414.531 75.212 L 414.745 109.581 L 406.348 109.581 L 406.348 56 L 406.775 56 L 443.99 92.645 L 443.848 57.779 Z  M 462.704 57.779 L 497.357 57.779 L 497.357 65.748 L 483.98 65.748 L 483.98 109.581 L 475.726 109.581 L 475.726 65.748 L 462.704 65.748 L 462.704 57.779 Z  M 545.815 109.581 L 536.208 109.581 L 524.539 91.578 L 523.685 91.578 L 516.213 91.578 L 516.213 109.581 L 507.888 109.581 L 507.888 57.779 L 522.475 57.779 L 522.475 57.779 Q 531.156 57.779 536.386 62.191 L 536.386 62.191 L 536.386 62.191 Q 541.616 66.602 541.616 74.429 L 541.616 74.429 L 541.616 74.429 Q 541.616 79.197 539.588 83.288 L 539.588 83.288 L 539.588 83.288 Q 537.56 87.38 533.22 89.586 L 533.22 89.586 L 545.815 109.581 Z  M 516.213 65.748 L 516.213 83.609 L 523.614 83.609 L 523.614 83.609 Q 528.595 83.609 530.836 80.869 L 530.836 80.869 L 530.836 80.869 Q 533.078 78.13 533.078 74.714 L 533.078 74.714 L 533.078 74.714 Q 533.078 72.722 532.224 70.694 L 532.224 70.694 L 532.224 70.694 Q 531.37 68.666 529.306 67.207 L 529.306 67.207 L 529.306 67.207 Q 527.243 65.748 523.898 65.748 L 523.898 65.748 L 516.213 65.748 Z  M 555.563 57.779 L 589.931 57.779 L 589.931 65.748 L 563.888 65.748 L 563.888 79.553 L 587.085 79.553 L 587.085 87.522 L 563.888 87.522 L 563.888 101.611 L 590.928 101.611 L 590.928 109.581 L 555.563 109.581 L 555.563 57.779 Z  M 49.072 57.779 L 83.726 57.779 L 83.726 65.748 L 70.348 65.748 L 70.348 109.581 L 62.094 109.581 L 62.094 65.748 L 49.072 65.748 L 49.072 57.779 Z  M 91.055 83.751 L 91.055 83.751 Q 91.055 76.635 94.612 70.551 L 94.612 70.551 L 94.612 70.551 Q 98.17 64.468 104.254 60.839 L 104.254 60.839 L 104.254 60.839 Q 110.338 57.21 117.525 57.21 L 117.525 57.21 L 117.525 57.21 Q 124.64 57.21 130.724 60.839 L 130.724 60.839 L 130.724 60.839 Q 136.808 64.468 140.437 70.587 L 140.437 70.587 L 140.437 70.587 Q 144.066 76.706 144.066 83.751 L 144.066 83.751 L 144.066 83.751 Q 144.066 90.938 140.473 96.986 L 140.473 96.986 L 140.473 96.986 Q 136.879 103.034 130.76 106.592 L 130.76 106.592 L 130.76 106.592 Q 124.64 110.15 117.525 110.15 L 117.525 110.15 L 117.525 110.15 Q 110.338 110.15 104.254 106.628 L 104.254 106.628 L 104.254 106.628 Q 98.17 103.105 94.612 97.057 L 94.612 97.057 L 94.612 97.057 Q 91.055 91.009 91.055 83.751 L 91.055 83.751 Z  M 99.593 83.751 L 99.593 83.751 Q 99.593 88.803 102.013 93.001 L 102.013 93.001 L 102.013 93.001 Q 104.432 97.199 108.595 99.69 L 108.595 99.69 L 108.595 99.69 Q 112.757 102.18 117.738 102.18 L 117.738 102.18 L 117.738 102.18 Q 122.648 102.18 126.704 99.726 L 126.704 99.726 L 126.704 99.726 Q 130.76 97.271 133.144 93.037 L 133.144 93.037 L 133.144 93.037 Q 135.527 88.803 135.527 83.751 L 135.527 83.751 L 135.527 83.751 Q 135.527 78.699 133.108 74.429 L 133.108 74.429 L 133.108 74.429 Q 130.689 70.16 126.562 67.67 L 126.562 67.67 L 126.562 67.67 Q 122.435 65.179 117.525 65.179 L 117.525 65.179 L 117.525 65.179 Q 112.544 65.179 108.452 67.67 L 108.452 67.67 L 108.452 67.67 Q 104.361 70.16 101.977 74.429 L 101.977 74.429 L 101.977 74.429 Q 99.593 78.699 99.593 83.751 L 99.593 83.751 Z  M 217.499 58.064 L 197.291 111.858 L 185.052 80.976 L 171.319 112 L 150.612 58.064 L 160.29 58.064 L 172.386 92.645 L 180.996 70.587 L 176.015 58.064 L 184.198 58.064 L 197.504 91.649 L 208.605 58.064 L 217.499 58.064 Z  M 264.747 57.779 L 273.001 57.779 L 273.001 111.431 L 272.788 111.431 L 235.431 75.212 L 235.644 109.581 L 227.248 109.581 L 227.248 56 L 227.675 56 L 264.889 92.645 L 264.747 57.779 Z " fill-rule="evenodd" fill="rgb(255,255,255)"/><path d=" M 0 0 L 640 0 L 640 168 L 0 168 L 0 0 Z  M 10 10.003 L 630 10.003 L 630 158.003 L 10 158.003 L 10 10.003 Z " fill-rule="evenodd" fill="rgb(255,255,255)"/><path d=" M 56.59 201.233 L 51.042 201.233 L 51.042 215.322 L 48.006 215.322 L 48.006 201.233 L 42.5 201.233 L 42.5 198.504 L 56.59 198.504 L 56.59 201.233 Z " fill="rgb(255,255,255)"/><path d=" M 72.009 206.521 L 74.411 206.521 C 75.853 206.521 77.207 205.537 77.207 204.227 C 77.207 202.676 75.853 201.911 74.389 201.911 L 72.009 201.911 L 72.009 206.521 Z  M 72.009 216 L 68.972 216 L 68.972 199.182 L 74.389 199.182 C 77.514 199.182 80.244 200.841 80.244 204.227 C 80.244 206.521 78.736 208.137 76.792 208.835 L 81.444 216 L 78.037 216 L 73.777 209.252 L 72.009 209.252 L 72.009 216 Z " fill="rgb(255,255,255)"/><path d=" M 99.97 208.769 L 104.054 208.769 L 102.001 204.138 L 99.97 208.769 Z  M 97.108 215.322 L 93.875 215.322 L 102.001 198 L 110.084 215.322 L 106.851 215.322 L 105.212 211.499 L 98.79 211.499 L 97.108 215.322 Z " fill="rgb(255,255,255)"/><path d=" M 125.744 205.144 L 125.744 215.322 L 122.707 215.322 L 122.707 198 L 133.978 208.857 L 133.978 198.504 L 137.016 198.504 L 137.016 216 L 125.744 205.144 Z " fill="rgb(255,255,255)"/><path d=" M 150.623 213.533 L 152.173 211.391 C 153.92 212.636 154.882 212.811 156.04 212.811 C 157.808 212.811 158.595 212.089 158.595 210.735 C 158.595 207.393 150.927 208.443 150.927 202.938 C 150.927 199.311 153.679 198.262 155.996 198.262 C 157.917 198.262 159.119 198.678 161.26 200.273 L 159.71 202.392 C 157.984 201.146 157.088 201.015 155.996 201.015 C 154.969 201.015 153.943 201.474 153.943 202.938 C 153.943 204.008 155.45 204.816 156.585 205.23 C 158.988 206.104 161.588 207.48 161.588 210.735 C 161.588 214.382 159.076 215.542 156.04 215.542 C 154.205 215.542 152.893 215.169 150.623 213.533 Z " fill="rgb(255,255,255)"/><path d=" M 184.349 208.289 L 178.232 208.289 L 178.232 215.322 L 175.196 215.322 L 175.196 198.504 L 185.222 198.504 L 185.222 201.233 L 178.232 201.233 L 178.232 205.558 L 184.349 205.558 L 184.349 208.289 Z " fill="rgb(255,255,255)"/><path d=" M 200.337 206.89 C 200.337 209.992 202.74 212.811 205.907 212.811 C 209.031 212.811 211.435 209.992 211.435 206.89 C 211.435 203.81 209.031 201.015 205.907 201.015 C 202.74 201.015 200.337 203.81 200.337 206.89 Z  M 197.258 206.89 C 197.258 202.173 201.145 198.284 205.907 198.284 C 210.67 198.284 214.514 202.216 214.514 206.89 C 214.514 211.674 210.605 215.542 205.907 215.542 C 201.167 215.542 197.258 211.674 197.258 206.89 Z " fill="rgb(255,255,255)"/><path d=" M 231.048 205.843 L 233.451 205.843 C 234.892 205.843 236.246 204.859 236.246 203.549 C 236.246 201.998 234.892 201.233 233.429 201.233 L 231.048 201.233 L 231.048 205.843 Z  M 231.048 215.322 L 228.012 215.322 L 228.012 198.504 L 233.429 198.504 C 236.553 198.504 239.283 200.163 239.283 203.549 C 239.283 205.843 237.775 207.459 235.832 208.157 L 240.484 215.322 L 237.076 215.322 L 232.817 208.574 L 231.048 208.574 L 231.048 215.322 Z " fill="rgb(255,255,255)"/><path d=" M 265.56 205.035 L 261.082 209.6 L 256.583 205.035 L 256.583 215.322 L 253.547 215.322 L 253.547 198 L 261.104 205.405 L 268.597 198 L 268.597 215.322 L 265.56 215.322 L 265.56 205.035 Z " fill="rgb(255,255,255)"/><path d=" M 285.568 198.504 L 285.568 215.322 L 282.531 215.322 L 282.531 198.504 L 285.568 198.504 Z " fill="rgb(255,255,255)"/><path d=" M 302.539 205.144 L 302.539 215.322 L 299.502 215.322 L 299.502 198 L 310.773 208.857 L 310.773 198.504 L 313.811 198.504 L 313.811 216 L 302.539 205.144 Z " fill="rgb(255,255,255)"/><path d=" M 327.419 206.935 C 327.419 201.998 331.066 198.284 336.09 198.284 C 337.883 198.284 339.847 198.744 341.879 200.12 L 340.437 202.37 C 338.886 201.343 337.271 201.015 336.09 201.015 C 332.792 201.015 330.498 203.637 330.498 206.935 C 330.498 210.145 332.857 212.811 336.09 212.811 C 337.095 212.811 338.405 212.505 339.411 211.937 L 339.411 209.381 L 336.331 209.381 L 336.331 206.651 L 342.293 206.651 L 342.293 213.313 C 340.525 214.579 338.384 215.542 336.09 215.542 C 330.979 215.542 327.419 211.674 327.419 206.935 Z " fill="rgb(255,255,255)"/><path d=" M 376.209 205.843 L 378.611 205.843 C 380.054 205.843 381.408 204.859 381.408 203.549 C 381.408 201.998 380.054 201.233 378.589 201.233 L 376.209 201.233 L 376.209 205.843 Z  M 376.209 215.322 L 373.172 215.322 L 373.172 198.504 L 378.589 198.504 C 381.713 198.504 384.444 200.163 384.444 203.549 C 384.444 205.843 382.936 207.459 380.993 208.157 L 385.645 215.322 L 382.238 215.322 L 377.979 208.574 L 376.209 208.574 L 376.209 215.322 Z " fill="rgb(255,255,255)"/><path d=" M 400.586 206.89 C 400.586 209.992 402.99 212.811 406.156 212.811 C 409.28 212.811 411.683 209.992 411.683 206.89 C 411.683 203.81 409.28 201.015 406.156 201.015 C 402.99 201.015 400.586 203.81 400.586 206.89 Z  M 397.506 206.89 C 397.506 202.173 401.394 198.284 406.156 198.284 C 410.919 198.284 414.762 202.216 414.762 206.89 C 414.762 211.674 410.853 215.542 406.156 215.542 C 401.415 215.542 397.506 211.674 397.506 206.89 Z " fill="rgb(255,255,255)"/><path d=" M 439.969 201.233 L 434.42 201.233 L 434.42 215.322 L 431.385 215.322 L 431.385 201.233 L 425.88 201.233 L 425.88 198.504 L 439.969 198.504 L 439.969 201.233 Z " fill="rgb(255,255,255)"/><path d=" M 465.263 215.322 L 462.227 215.322 L 462.227 208.289 L 456.067 208.289 L 456.067 215.322 L 453.03 215.322 L 453.03 198.504 L 456.067 198.504 L 456.067 205.558 L 462.227 205.558 L 462.227 198.504 L 465.263 198.504 L 465.263 215.322 Z " fill="rgb(255,255,255)"/><path d=" M 488.526 208.289 L 482.235 208.289 L 482.235 212.593 L 489.619 212.593 L 489.619 215.322 L 479.199 215.322 L 479.199 198.504 L 489.4 198.504 L 489.4 201.233 L 482.235 201.233 L 482.235 205.558 L 488.526 205.558 L 488.526 208.289 Z " fill="rgb(255,255,255)"/><path d=" M 506.262 205.843 L 508.664 205.843 C 510.106 205.843 511.46 204.859 511.46 203.549 C 511.46 201.998 510.106 201.233 508.642 201.233 L 506.262 201.233 L 506.262 205.843 Z  M 506.262 215.322 L 503.225 215.322 L 503.225 198.504 L 508.642 198.504 C 511.767 198.504 514.497 200.163 514.497 203.549 C 514.497 205.843 512.989 207.459 511.045 208.157 L 515.698 215.322 L 512.29 215.322 L 508.03 208.574 L 506.262 208.574 L 506.262 215.322 Z " fill="rgb(255,255,255)"/><path d=" M 540.994 215.322 L 537.956 215.322 L 537.956 208.289 L 531.797 208.289 L 531.797 215.322 L 528.761 215.322 L 528.761 198.504 L 531.797 198.504 L 531.797 205.558 L 537.956 205.558 L 537.956 198.504 L 540.994 198.504 L 540.994 215.322 Z " fill="rgb(255,255,255)"/><path d=" M 559.712 208.769 L 563.795 208.769 L 561.742 204.138 L 559.712 208.769 Z  M 556.85 215.322 L 553.617 215.322 L 561.742 198 L 569.825 215.322 L 566.592 215.322 L 564.954 211.499 L 558.532 211.499 L 556.85 215.322 Z " fill="rgb(255,255,255)"/><path d=" M 594.462 205.035 L 589.985 209.6 L 585.486 205.035 L 585.486 215.322 L 582.449 215.322 L 582.449 198 L 590.006 205.405 L 597.5 198 L 597.5 215.322 L 594.462 215.322 L 594.462 205.035 Z " fill="rgb(255,255,255)"/></g></svg>