<?xml version="1.0" standalone="no"?><!DOCTYPE svg PUBLIC "-//W3C//DTD SVG 1.1//EN" "http://www.w3.org/Graphics/SVG/1.1/DTD/svg11.dtd"><svg width="100%" height="100%" viewBox="0 0 144 144" version="1.1" xmlns="http://www.w3.org/2000/svg" xmlns:xlink="http://www.w3.org/1999/xlink" xml:space="preserve" style="fill-rule:evenodd;clip-rule:evenodd;stroke-linejoin:round;stroke-miterlimit:1.41421;"><path d="M3.273,72.001c0,-37.958 30.769,-68.729 68.727,-68.729c37.957,0 68.728,30.771 68.728,68.729c0,37.957 -30.771,68.727 -68.728,68.727c-37.958,0 -68.727,-30.77 -68.727,-68.727ZM120.511,69.488c-5.187,-0.277 -7.035,0.534 -12.677,3.955c0,0 -1.039,-4.188 -2.909,-5.988c-4.791,-4.61 -12.685,8.093 -16.203,5.293c-5.864,-4.662 5.655,-18.759 12.835,-17.623c4.036,0.64 7.687,5.728 9.902,10.681c0.076,0.268 0.186,0.521 0.325,0.754c0.565,0.931 1.6,1.55 2.767,1.55c1.776,0 3.218,-1.445 3.218,-3.227c0,-0.436 -0.083,-0.855 -0.367,-1.501c-4.546,-9.689 -9.181,-15.057 -18.467,-15.023c-9.897,0.038 -15.391,5.792 -21.283,11.741l-2.364,-7.919c-0.309,-1.426 -1.579,-2.493 -3.097,-2.493c-1.751,0 -3.17,1.419 -3.17,3.171c0,0.325 0.039,0.641 0.129,0.936c0.382,1.147 0.727,5.407 0.472,7.026c-0.36,2.271 -2.602,11.065 -8.392,10.146c-7.938,-1.256 -7.304,-20.872 -7.388,-21.354c-0.068,-1.726 -1.487,-3.104 -3.23,-3.104c-1.785,0 -3.232,1.447 -3.232,3.232c0,0.204 0.019,0.402 0.055,0.595l-0.259,12.708l-0.917,5.787c-0.375,2.43 -1.242,5.052 -4.535,4.532c-6.476,-1.025 -5.722,-14.687 -5.766,-15.254c0.029,-0.173 0.038,-0.353 0.038,-0.535c0,-1.839 -1.449,-3.332 -3.236,-3.332c-1.628,0 -2.977,1.24 -3.235,2.848c-0.008,0.856 -0.135,1.542 -0.75,4.62c-0.03,0.194 -3.307,14.273 -9.398,13.311c-4.064,-0.645 -3.416,-8.048 -3.103,-10.02c0.055,-0.352 0.133,-1.647 0.729,-3.699c1.855,-6.218 4.725,-12.871 10.069,-18.929c0.421,-0.538 0.666,-1.222 0.666,-1.959c0,-1.751 -1.421,-3.171 -3.171,-3.171c-0.972,0 -1.85,0.432 -2.431,1.119c-6.05,6.814 -9.194,14.301 -11.469,21.486l-0.683,4.302c-0.828,4.776 -0.551,15.791 8.321,17.195c5.456,0.865 10.37,-2.614 13.365,-9.141c1.792,4.076 5.83,6.984 8.91,7.472c5.28,0.838 9.795,-1.236 11.697,-8.109c1.815,3.544 5.713,5.382 8.302,5.793c0.352,0.055 2.06,-0.111 2.95,-0.277c-3.205,6.005 -6.884,12.807 -7.884,19.126c-0.212,1.334 -0.326,2.863 -0.238,4.412c0.248,4.473 2.161,9.172 8.181,10.127c6.674,1.055 10.916,-3.981 13.652,-10.127l0,-0.002c0.735,-1.652 1.361,-3.391 1.898,-5.111c3.229,-10.365 0.083,-27.862 0.166,-28.389c0.056,-0.352 3.642,-4.606 5.071,-5.946c-0.924,1.972 -2.313,4.537 -2.73,7.835c-0.549,4.344 1.328,9.241 6.659,10.085c3.927,0.623 7.761,-2.82 12.184,-5.711c0.363,1.031 1.795,3.582 1.74,3.933c-0.117,0.74 -4.87,5.158 -6.953,8.617c-1.297,2.156 -2.308,4.534 -3.232,6.714c-0.666,1.59 -1.119,3.297 -1.523,4.821c-0.416,1.606 -0.582,2.573 -0.663,3.151c-0.042,0.313 -0.061,0.511 -0.081,0.635c-0.922,5.827 0.042,19.566 10.214,21.178c8.537,1.35 12.566,-4.595 13.71,-11.832c0.482,-3.042 0.463,-6.502 0.167,-9.978l-0.001,0c-0.874,-10.207 -4.138,-20.53 -4.105,-20.74c0.184,-1.161 6.111,-3.876 10.837,-3.926c1.82,0 3.294,-1.441 3.294,-3.221c0,-1.778 -1.433,-3.139 -3.381,-3.246ZM107.274,100.627c0.399,3.543 0.497,6.977 0.039,9.867c-0.579,3.659 -1.546,7.26 -6.299,6.508c-5.719,-0.906 -5.31,-11.577 -4.941,-13.918c0.049,-0.303 0.063,-0.898 0.451,-2.463c0.061,-0.251 0.134,-0.528 0.217,-0.833c1.365,-4.98 3.365,-9.891 7.564,-14.452c1.083,4.353 2.366,9.947 2.969,15.285l0,0.006ZM72.903,93.702c-0.787,2.321 -1.721,4.911 -2.951,6.917c-1.367,2.235 -3.099,3.761 -5.396,3.396c-1.795,-0.283 -2.484,-1.779 -2.691,-3.394l0,-0.002c-0.176,-1.378 -0.001,-2.845 0.137,-3.72c1.165,-7.357 7.269,-17.248 11.737,-23.472c0.279,3.42 1.23,14.173 -0.836,20.275ZM127.156,72.662c0,-1.755 1.421,-3.177 3.177,-3.177c1.754,0 3.177,1.422 3.177,3.177c0,1.754 -1.423,3.177 -3.177,3.177c-1.756,0 -3.177,-1.423 -3.177,-3.177Z" style="fill:#fff;"/></svg>